<svg id="svg" version="1.1" xmlns="http://www.w3.org/2000/svg" xmlns:xlink="http://www.w3.org/1999/xlink" width="400" height="400" viewBox="0, 0, 400,400"><g id="svgg"><path id="path0" d="M39.600 200.000 L 39.600 360.400 200.000 360.400 L 360.400 360.400 360.400 200.000 L 360.400 39.600 200.000 39.600 L 39.600 39.600 39.600 200.000 M350.957 49.833 C 351.596 51.497,351.213 349.930,350.571 350.571 C 349.930 351.213,51.497 351.596,49.833 350.957 C 49.257 350.736,49.200 337.059,49.200 199.957 L 49.200 49.200 199.957 49.200 C 337.059 49.200,350.736 49.257,350.957 49.833 M70.269 203.100 C 70.171 203.265,69.878 204.480,69.618 205.800 C 69.358 207.120,68.977 208.851,68.773 209.646 C 68.568 210.442,68.400 211.201,68.400 211.332 C 68.400 211.464,70.245 211.623,72.500 211.686 C 77.098 211.814,76.769 211.487,76.029 215.200 C 75.831 216.190,75.473 218.170,75.234 219.600 C 74.994 221.030,74.627 222.920,74.419 223.800 C 74.210 224.680,73.592 227.830,73.045 230.800 C 71.720 237.999,71.707 238.065,71.386 239.100 C 71.108 239.997,71.121 240.000,75.653 239.994 C 80.815 239.987,81.010 239.919,81.332 238.000 C 81.676 235.947,82.227 233.044,83.000 229.200 C 83.376 227.330,83.834 224.990,84.017 224.000 C 84.201 223.010,84.465 221.660,84.605 221.000 C 84.745 220.340,85.123 218.360,85.445 216.600 C 85.766 214.840,86.116 212.995,86.222 212.500 C 86.407 211.636,86.584 211.600,90.600 211.600 C 95.340 211.600,94.754 212.094,95.578 207.400 C 95.809 206.080,96.110 204.505,96.246 203.900 L 96.493 202.800 83.470 202.800 C 76.308 202.800,70.367 202.935,70.269 203.100 M101.280 203.280 C 101.016 203.544,100.800 204.108,100.800 204.534 C 100.800 204.960,100.350 207.579,99.800 210.354 C 98.747 215.666,98.408 217.399,97.406 222.600 C 96.376 227.947,95.941 230.162,95.753 231.000 C 95.655 231.440,95.319 233.240,95.006 235.000 C 94.693 236.760,94.317 238.605,94.172 239.100 C 93.908 239.996,93.925 240.000,98.453 239.994 C 103.681 239.987,103.796 239.943,104.128 237.800 C 104.265 236.920,104.660 234.760,105.006 233.000 C 105.353 231.240,105.739 229.080,105.865 228.200 C 106.199 225.864,106.761 225.600,111.396 225.600 C 116.871 225.600,116.616 225.065,115.021 233.200 C 114.654 235.070,114.251 237.365,114.125 238.300 L 113.896 240.000 118.505 240.000 C 123.682 240.000,123.375 240.189,124.027 236.600 C 124.555 233.695,126.212 225.088,126.799 222.200 C 126.978 221.320,127.426 218.980,127.794 217.000 C 128.163 215.020,128.613 212.680,128.795 211.800 C 129.144 210.113,129.877 206.288,130.271 204.100 L 130.505 202.800 125.728 202.800 L 120.951 202.800 119.830 208.700 C 118.139 217.596,118.977 216.581,113.220 216.713 L 108.305 216.825 108.567 214.913 C 108.711 213.861,109.001 212.190,109.212 211.200 C 110.391 205.652,110.800 203.598,110.800 203.221 C 110.800 202.604,101.901 202.659,101.280 203.280 M137.600 202.900 C 137.600 202.955,137.308 204.440,136.951 206.200 C 136.594 207.960,136.163 210.210,135.993 211.200 C 135.823 212.190,135.395 214.440,135.042 216.200 C 134.060 221.094,133.991 221.449,132.970 226.800 C 131.882 232.505,131.285 235.516,130.791 237.776 C 130.289 240.072,129.934 240.000,141.744 240.000 C 153.408 240.000,153.600 239.967,153.600 237.980 C 153.600 237.397,153.765 236.398,153.967 235.760 C 154.169 235.122,154.441 233.835,154.572 232.900 L 154.809 231.200 148.592 231.200 C 141.418 231.200,141.517 231.257,142.433 227.638 L 143.000 225.400 148.239 225.289 L 153.478 225.178 153.966 222.889 C 154.234 221.630,154.614 219.985,154.810 219.234 C 155.329 217.243,155.221 217.200,149.721 217.200 L 144.690 217.200 144.944 215.034 C 145.377 211.354,144.856 211.600,152.225 211.600 L 158.764 211.600 159.002 210.100 C 159.134 209.275,159.401 207.880,159.597 207.000 C 159.792 206.120,160.049 204.815,160.166 204.100 L 160.380 202.800 148.990 202.800 C 142.726 202.800,137.600 202.845,137.600 202.900 M127.600 256.476 C 125.510 259.810,123.728 262.732,123.640 262.969 C 123.552 263.206,123.356 263.490,123.205 263.600 C 123.054 263.710,122.413 264.700,121.780 265.800 C 121.147 266.900,117.878 272.176,114.515 277.523 C 111.152 282.871,108.400 287.416,108.400 287.623 C 108.400 287.840,110.656 288.000,113.707 288.000 L 119.013 288.000 120.329 285.800 L 121.645 283.600 127.999 283.600 C 134.888 283.600,134.694 283.532,135.130 286.094 L 135.421 287.800 140.331 287.912 L 145.241 288.025 144.983 286.512 C 144.840 285.681,144.565 284.460,144.370 283.800 C 144.175 283.140,143.554 280.620,142.989 278.200 C 142.425 275.780,141.798 273.170,141.596 272.400 C 141.111 270.549,139.618 264.217,139.191 262.200 C 138.652 259.657,137.684 255.598,137.016 253.080 C 136.677 251.805,136.400 250.680,136.400 250.580 C 136.400 250.481,135.275 250.403,133.900 250.407 L 131.400 250.415 127.600 256.476 M72.198 252.300 C 72.066 253.125,71.803 254.520,71.612 255.400 C 71.224 257.189,70.721 259.768,69.779 264.800 C 69.429 266.670,68.985 268.920,68.792 269.800 C 68.599 270.680,67.973 273.920,67.401 277.000 C 66.829 280.080,66.190 283.251,65.980 284.046 C 65.771 284.842,65.600 286.063,65.600 286.759 L 65.600 288.025 70.277 287.913 L 74.954 287.800 75.492 285.000 C 75.788 283.460,76.222 281.210,76.456 280.000 C 76.691 278.790,76.999 277.095,77.141 276.233 C 77.569 273.644,78.270 274.039,80.041 277.866 C 84.916 288.401,84.054 287.532,86.642 284.520 C 97.230 272.194,97.236 272.190,95.598 279.400 C 95.156 281.341,94.000 287.378,94.000 287.740 C 94.000 287.883,96.034 288.000,98.520 288.000 C 103.315 288.000,104.000 287.766,104.000 286.126 C 104.000 285.623,104.185 284.444,104.411 283.506 C 104.636 282.568,105.198 279.820,105.658 277.400 C 106.118 274.980,106.637 272.280,106.811 271.400 C 106.985 270.520,107.324 268.630,107.565 267.200 C 107.805 265.770,108.167 263.880,108.369 263.000 C 108.570 262.120,108.926 260.410,109.160 259.200 C 109.394 257.990,109.858 255.704,110.192 254.121 C 110.527 252.538,110.800 251.143,110.800 251.021 C 110.800 250.899,109.656 250.800,108.258 250.800 L 105.716 250.800 103.166 253.700 C 101.763 255.295,100.522 256.690,100.408 256.800 C 100.293 256.910,98.940 258.440,97.401 260.200 C 95.861 261.960,93.948 264.120,93.149 265.000 C 92.351 265.880,90.761 267.680,89.617 269.000 C 86.995 272.025,86.502 272.318,86.045 271.121 C 85.852 270.614,85.024 268.760,84.205 267.000 C 83.386 265.240,82.262 262.810,81.708 261.600 C 81.154 260.390,79.985 257.870,79.112 256.000 C 78.238 254.130,77.365 252.195,77.172 251.700 C 76.866 250.919,76.530 250.800,74.628 250.800 L 72.436 250.800 72.198 252.300 M156.431 253.500 C 156.158 254.765,155.776 256.520,155.582 257.400 C 155.389 258.280,155.118 259.810,154.981 260.800 C 154.845 261.790,154.574 263.230,154.380 264.000 C 154.185 264.770,153.560 268.010,152.990 271.200 C 152.419 274.390,151.783 277.553,151.576 278.228 C 151.369 278.904,151.200 279.927,151.200 280.502 C 151.200 281.077,151.044 281.965,150.854 282.474 C 150.663 282.983,150.380 284.435,150.225 285.700 L 149.942 288.000 154.540 288.000 L 159.138 288.000 159.536 286.700 C 159.756 285.985,160.238 283.600,160.608 281.400 C 160.979 279.200,161.444 276.987,161.641 276.481 C 161.838 275.976,162.000 275.211,162.000 274.781 C 162.000 272.731,163.487 275.303,168.424 285.893 L 169.400 287.986 174.300 287.993 C 179.987 288.001,179.886 288.105,177.860 284.310 C 171.369 272.154,171.843 273.694,174.207 272.440 C 180.583 269.058,182.855 259.879,178.558 254.859 C 175.843 251.687,174.023 251.200,164.889 251.200 L 156.928 251.200 156.431 253.500 M190.860 253.100 C 190.629 254.145,190.148 256.530,189.791 258.400 C 189.435 260.270,188.985 262.520,188.792 263.400 C 188.599 264.280,188.155 266.620,187.806 268.600 C 187.457 270.580,187.006 272.920,186.805 273.800 C 186.603 274.680,186.352 275.940,186.247 276.600 C 186.142 277.260,185.770 279.240,185.421 281.000 C 185.071 282.760,184.673 285.055,184.537 286.100 L 184.289 288.000 188.892 288.000 L 193.496 288.000 193.909 286.300 C 194.581 283.532,195.133 280.840,195.877 276.696 C 196.756 271.801,197.086 271.867,199.388 277.400 C 199.754 278.280,200.204 279.360,200.387 279.800 C 200.570 280.240,201.070 281.410,201.497 282.400 C 201.924 283.390,202.617 285.054,203.037 286.099 L 203.800 287.997 208.676 287.999 C 211.358 287.999,213.638 287.862,213.742 287.693 C 213.902 287.435,212.604 283.996,211.216 281.000 C 210.358 279.146,208.835 275.586,207.602 272.547 L 206.281 269.294 208.241 266.801 C 209.318 265.430,210.650 263.721,211.200 263.002 C 213.479 260.025,214.608 258.589,214.817 258.400 C 214.939 258.290,216.260 256.625,217.752 254.700 L 220.466 251.200 214.728 251.200 L 208.990 251.200 206.195 254.890 C 204.658 256.920,203.186 258.855,202.925 259.190 C 202.663 259.526,201.714 260.745,200.815 261.900 C 198.919 264.338,198.189 264.597,198.570 262.700 C 198.713 261.985,198.982 260.590,199.166 259.600 C 199.351 258.610,199.794 256.360,200.151 254.600 C 200.508 252.840,200.800 251.355,200.800 251.300 C 200.800 251.245,198.658 251.200,196.040 251.200 L 191.280 251.200 190.860 253.100 M225.035 254.300 C 224.680 256.005,224.195 258.390,223.957 259.600 C 223.718 260.810,223.363 262.610,223.168 263.600 C 222.973 264.590,222.538 266.840,222.202 268.600 C 221.571 271.898,221.480 272.362,219.797 280.795 C 219.249 283.543,218.800 286.288,218.800 286.895 L 218.800 288.000 229.948 288.000 L 241.096 288.000 241.513 286.300 C 242.149 283.713,242.800 280.407,242.800 279.769 C 242.800 279.301,241.695 279.200,236.587 279.200 C 229.481 279.200,229.704 279.326,230.492 275.769 L 231.017 273.400 235.609 273.302 C 241.926 273.166,241.851 273.194,242.127 270.905 C 242.253 269.857,242.479 268.241,242.629 267.313 L 242.902 265.625 237.951 265.513 L 233.000 265.400 233.050 263.367 C 233.143 259.573,233.091 259.600,240.362 259.600 L 246.695 259.600 246.948 258.300 C 247.087 257.585,247.444 255.695,247.741 254.100 L 248.280 251.200 236.980 251.200 L 225.680 251.200 225.035 254.300 M251.658 253.700 C 251.379 255.075,250.992 256.909,250.799 257.776 C 250.309 259.969,250.365 260.000,254.870 260.000 C 258.858 260.000,258.891 260.008,258.614 260.900 C 258.461 261.395,258.244 262.250,258.132 262.800 C 257.583 265.508,256.264 272.406,255.992 274.000 C 255.822 274.990,255.387 277.330,255.024 279.200 C 254.661 281.070,254.208 283.500,254.017 284.600 C 253.827 285.700,253.610 286.870,253.535 287.200 C 253.421 287.707,254.139 287.800,258.193 287.800 L 262.986 287.800 263.294 286.200 C 263.463 285.320,263.771 283.700,263.978 282.600 C 264.185 281.500,264.471 280.060,264.613 279.400 C 264.755 278.740,265.235 276.310,265.681 274.000 C 266.127 271.690,266.667 268.900,266.882 267.800 C 267.097 266.700,267.481 264.540,267.736 263.000 L 268.200 260.200 272.315 260.086 C 277.024 259.955,276.748 260.190,277.582 255.600 C 277.841 254.170,278.151 252.595,278.270 252.100 L 278.487 251.200 265.326 251.200 L 252.165 251.200 251.658 253.700 M168.488 259.618 C 173.448 260.995,171.413 267.200,166.002 267.200 L 163.525 267.200 163.796 265.100 C 164.528 259.417,165.150 258.691,168.488 259.618 M131.755 268.900 C 131.849 269.395,132.208 271.218,132.555 272.951 C 133.339 276.879,133.399 276.800,129.600 276.800 C 125.895 276.800,125.612 276.535,126.923 274.288 C 127.465 273.360,128.272 271.950,128.717 271.155 C 130.651 267.696,131.419 267.125,131.755 268.900 M180.000 298.796 C 164.416 301.302,156.121 322.037,166.506 332.525 C 171.735 337.806,180.680 338.394,189.091 334.010 C 192.130 332.426,192.102 332.032,188.541 326.323 L 187.619 324.847 185.362 326.206 C 176.890 331.307,168.974 324.648,172.454 315.347 C 175.233 307.919,183.390 305.240,188.601 310.044 L 190.408 311.709 193.304 309.162 C 197.571 305.410,197.507 305.656,194.900 303.042 C 191.194 299.324,185.971 297.836,180.000 298.796 M144.553 299.900 C 144.146 300.505,143.616 301.360,143.374 301.800 C 143.006 302.470,126.457 328.897,124.462 332.000 C 123.356 333.722,122.400 335.580,122.400 336.010 C 122.400 336.279,124.239 336.384,127.665 336.312 L 132.930 336.200 133.765 334.711 C 135.561 331.508,135.317 331.600,141.982 331.600 C 148.673 331.600,148.462 331.509,149.119 334.676 L 149.435 336.200 154.317 336.312 C 157.003 336.374,159.200 336.266,159.200 336.072 C 159.200 335.878,159.035 335.198,158.833 334.560 C 158.631 333.922,157.997 331.330,157.422 328.800 C 156.848 326.270,156.207 323.570,155.996 322.800 C 155.786 322.030,155.334 320.140,154.992 318.600 C 154.650 317.060,154.207 315.170,154.006 314.400 C 153.806 313.630,153.350 311.740,152.992 310.200 C 152.216 306.853,151.665 304.626,151.211 303.000 C 151.027 302.340,150.761 301.125,150.620 300.300 L 150.364 298.800 147.828 298.800 C 145.507 298.800,145.229 298.893,144.553 299.900 M72.414 299.974 C 72.186 300.399,72.000 301.143,72.000 301.627 C 72.000 302.111,71.833 303.158,71.628 303.954 C 71.258 305.395,70.986 306.755,69.779 313.200 C 69.429 315.070,68.985 317.320,68.792 318.200 C 68.599 319.080,67.973 322.320,67.401 325.400 C 66.829 328.480,66.190 331.651,65.980 332.446 C 65.771 333.242,65.600 334.457,65.600 335.146 L 65.600 336.400 70.173 336.400 C 74.184 336.400,74.771 336.314,74.951 335.700 C 75.152 335.010,75.769 331.921,76.407 328.400 C 76.978 325.253,76.878 325.327,80.924 325.021 C 91.100 324.251,96.406 319.150,96.396 310.146 C 96.390 304.378,93.618 300.756,88.341 299.625 C 84.562 298.814,72.898 299.070,72.414 299.974 M103.817 299.700 C 103.730 299.975,103.577 300.740,103.476 301.400 C 103.376 302.060,102.803 305.030,102.204 308.000 C 101.605 310.970,100.963 314.210,100.777 315.200 C 100.379 317.317,99.258 323.116,98.805 325.400 C 98.630 326.280,98.203 328.530,97.856 330.400 C 97.509 332.270,97.107 334.385,96.963 335.100 L 96.700 336.400 107.926 336.400 C 116.472 336.400,119.228 336.281,119.469 335.900 C 119.817 335.349,121.183 329.015,121.193 327.900 C 121.199 327.262,120.631 327.200,114.800 327.200 C 109.300 327.200,108.400 327.113,108.400 326.583 C 108.400 326.051,108.819 323.733,109.771 319.000 C 109.904 318.340,110.290 316.360,110.629 314.600 C 111.241 311.425,111.542 309.833,112.329 305.600 C 112.554 304.390,112.928 302.590,113.159 301.600 C 113.391 300.610,113.585 299.665,113.590 299.500 C 113.608 298.949,103.992 299.146,103.817 299.700 M203.419 299.568 C 203.212 299.904,201.550 308.030,200.795 312.400 C 200.624 313.390,200.176 315.730,199.800 317.600 C 199.424 319.470,198.966 321.810,198.783 322.800 C 198.599 323.790,198.332 325.140,198.189 325.800 C 197.631 328.375,196.400 335.271,196.400 335.820 C 196.400 336.312,198.031 336.400,207.167 336.400 C 218.864 336.400,219.200 336.360,219.200 334.983 C 219.200 334.471,219.358 333.635,219.551 333.126 C 219.743 332.617,220.030 331.080,220.189 329.710 L 220.476 327.221 214.138 327.110 L 207.800 327.000 207.940 325.400 C 208.017 324.520,208.322 323.215,208.619 322.500 L 209.159 321.200 214.156 321.200 C 219.835 321.200,219.441 321.454,220.159 317.325 C 220.851 313.344,221.181 313.600,215.348 313.600 L 210.342 313.600 210.621 311.300 C 211.027 307.940,210.819 308.034,218.119 307.910 L 224.556 307.800 225.052 305.000 C 225.324 303.460,225.672 301.525,225.825 300.700 L 226.102 299.200 214.875 299.200 C 208.461 299.200,203.550 299.358,203.419 299.568 M86.431 309.169 C 89.426 312.165,87.033 315.947,81.910 316.314 L 79.200 316.507 79.200 315.059 C 79.200 314.263,79.377 312.844,79.594 311.906 C 79.810 310.968,80.084 309.705,80.201 309.100 C 80.533 307.396,84.704 307.442,86.431 309.169 M145.735 317.500 C 146.006 319.356,146.669 323.192,146.859 324.000 C 146.975 324.492,146.370 324.621,143.500 324.716 C 139.286 324.855,139.331 324.995,142.073 320.214 C 144.803 315.455,145.375 315.031,145.735 317.500 M228.529 327.409 C 226.323 328.731,225.200 330.598,225.200 332.941 C 225.200 338.566,232.955 339.027,235.681 333.564 C 238.079 328.758,233.235 324.588,228.529 327.409 " stroke="none" fill="#f9f6e9" fill-rule="evenodd"></path><path id="path1" d="M49.785 50.099 C 49.681 50.375,49.641 118.010,49.698 200.400 L 49.800 350.200 200.000 350.200 L 350.200 350.200 350.200 200.000 L 350.200 49.800 200.088 49.699 C 80.207 49.619,49.937 49.700,49.785 50.099 M96.736 203.159 C 96.810 203.686,96.690 204.856,96.468 205.759 C 96.246 206.661,95.842 208.435,95.569 209.700 L 95.072 212.000 91.160 212.000 C 86.859 212.000,86.811 212.026,86.367 214.585 C 86.038 216.482,84.861 222.625,84.332 225.200 C 84.129 226.190,83.812 227.810,83.627 228.800 C 81.213 241.727,82.106 240.535,75.000 240.321 L 71.000 240.200 71.051 239.000 C 71.079 238.340,71.302 236.810,71.546 235.600 C 71.791 234.390,72.268 231.960,72.606 230.200 C 73.608 224.988,74.055 222.695,74.398 221.000 C 75.001 218.025,75.999 212.602,75.999 212.300 C 76.000 212.135,74.200 212.000,72.000 212.000 C 67.520 212.000,67.546 212.023,68.380 208.846 C 68.588 208.051,68.984 206.281,69.259 204.914 C 69.881 201.822,68.543 202.076,83.800 202.144 L 96.600 202.200 96.736 203.159 M111.200 203.239 C 111.200 203.700,110.764 206.355,110.232 209.139 C 109.699 211.922,109.184 214.695,109.087 215.300 L 108.911 216.400 113.404 216.400 L 117.897 216.400 118.164 214.300 C 118.310 213.145,118.584 211.660,118.771 211.000 C 118.959 210.340,119.341 208.450,119.620 206.800 C 120.407 202.145,120.050 202.400,125.790 202.400 C 128.520 202.400,130.835 202.535,130.935 202.700 C 131.093 202.959,130.576 205.843,128.803 214.600 C 128.580 215.700,128.131 218.040,127.806 219.800 C 127.175 223.220,126.546 226.411,125.994 229.000 C 125.806 229.880,125.356 232.310,124.993 234.400 C 123.956 240.370,124.144 240.178,119.186 240.317 C 112.776 240.495,112.749 240.471,114.001 235.600 C 114.491 233.697,115.600 227.724,115.600 226.992 C 115.600 226.506,114.823 226.400,111.243 226.400 C 106.504 226.400,106.400 226.452,106.400 228.814 C 106.400 229.446,106.234 230.376,106.031 230.881 C 105.828 231.387,105.345 233.643,104.957 235.896 C 104.127 240.712,104.437 240.521,97.800 240.321 L 93.800 240.200 93.868 238.800 C 93.906 238.030,94.114 236.590,94.330 235.600 C 94.547 234.610,95.027 232.180,95.398 230.200 C 96.289 225.436,96.677 223.408,97.160 221.000 C 98.039 216.618,99.004 211.599,99.966 206.400 C 100.789 201.957,100.120 202.400,106.008 202.400 C 111.013 202.400,111.200 202.430,111.200 203.239 M160.800 203.060 C 160.800 203.619,160.031 207.950,159.373 211.100 C 159.187 211.989,159.106 212.000,152.600 212.000 C 145.189 212.000,145.995 211.630,145.405 215.300 L 145.164 216.800 150.158 216.800 C 152.905 216.800,155.234 216.935,155.334 217.100 C 155.559 217.471,154.959 221.607,154.349 223.900 L 153.896 225.600 148.738 225.600 C 142.976 225.600,143.067 225.551,142.738 228.826 L 142.600 230.200 148.954 230.310 L 155.308 230.421 155.043 233.015 C 154.896 234.442,154.602 236.069,154.388 236.631 C 154.175 237.192,154.000 238.159,154.000 238.779 C 154.000 239.610,153.763 239.970,153.100 240.148 C 151.735 240.514,131.075 240.435,130.486 240.062 C 130.007 239.758,130.312 237.007,131.358 232.200 C 131.454 231.760,131.722 230.410,131.955 229.200 C 134.025 218.419,134.423 216.390,134.818 214.600 C 135.012 213.720,135.457 211.380,135.806 209.400 C 136.155 207.420,136.635 205.035,136.872 204.100 L 137.304 202.400 149.052 202.400 C 159.703 202.400,160.800 202.462,160.800 203.060 M136.719 250.502 C 136.948 250.778,137.235 251.453,137.357 252.002 C 137.479 252.551,138.127 255.340,138.797 258.200 C 139.468 261.060,140.204 264.210,140.433 265.200 C 140.663 266.190,141.010 267.630,141.204 268.400 C 141.399 269.170,141.850 271.060,142.208 272.600 C 142.565 274.140,143.019 276.030,143.216 276.800 C 146.444 289.420,146.689 288.400,140.439 288.400 L 135.278 288.400 134.839 287.140 C 134.598 286.447,134.400 285.567,134.400 285.183 C 134.400 284.138,133.626 284.000,127.763 284.000 C 121.876 284.000,122.248 283.861,120.298 286.800 L 119.369 288.200 113.485 288.311 C 109.323 288.389,107.600 288.289,107.600 287.971 C 107.600 287.723,110.055 283.631,113.055 278.877 C 118.916 269.588,119.622 268.446,120.638 266.600 C 121.002 265.940,121.907 264.545,122.649 263.499 C 123.392 262.454,124.000 261.518,124.000 261.420 C 124.000 261.205,128.453 254.085,130.079 251.700 C 131.315 249.888,135.572 249.120,136.719 250.502 M79.062 254.600 C 80.032 256.800,81.343 259.680,81.977 261.000 C 83.886 264.976,86.270 270.164,86.459 270.756 C 86.692 271.481,87.443 270.751,93.005 264.400 C 95.413 261.650,97.477 259.310,97.591 259.200 C 97.706 259.090,98.982 257.650,100.427 256.000 C 101.872 254.350,103.567 252.415,104.193 251.700 C 105.579 250.119,111.200 249.641,111.200 251.105 C 111.200 251.724,109.928 258.442,108.834 263.600 C 108.624 264.590,108.164 267.020,107.812 269.000 C 107.459 270.980,107.012 273.320,106.818 274.200 C 106.624 275.080,106.273 276.790,106.037 278.000 C 105.290 281.848,104.362 286.569,104.170 287.500 C 103.989 288.378,103.855 288.400,98.792 288.400 L 93.600 288.400 93.600 287.146 C 93.600 286.457,93.763 285.242,93.961 284.446 C 94.760 281.248,95.162 279.281,95.432 277.247 L 95.715 275.112 93.757 277.246 C 92.681 278.419,91.620 279.584,91.400 279.834 C 91.180 280.083,90.460 280.898,89.799 281.644 C 89.139 282.390,87.722 284.035,86.651 285.300 C 85.579 286.565,84.535 287.600,84.330 287.600 C 83.999 287.600,81.949 283.488,79.187 277.287 C 78.116 274.884,77.923 275.034,77.241 278.800 C 76.661 282.005,76.051 284.925,75.549 286.900 L 75.168 288.400 69.984 288.400 C 65.761 288.400,64.800 288.294,64.800 287.829 C 64.800 287.516,65.182 285.401,65.650 283.129 C 66.117 280.858,66.638 278.190,66.808 277.200 C 66.977 276.210,67.405 273.960,67.758 272.200 C 68.740 267.306,68.809 266.951,69.830 261.600 C 70.354 258.850,70.983 255.610,71.227 254.400 C 71.470 253.190,71.750 251.787,71.847 251.282 C 72.013 250.420,72.186 250.371,74.662 250.482 L 77.300 250.600 79.062 254.600 M174.800 251.388 C 183.537 255.919,183.616 267.572,174.945 272.653 C 172.700 273.969,172.705 273.984,178.849 285.078 C 180.741 288.494,180.814 288.439,174.543 288.311 L 169.086 288.200 167.957 286.000 C 167.336 284.790,165.904 281.852,164.776 279.471 C 163.648 277.090,162.617 275.250,162.485 275.381 C 162.256 275.611,161.564 278.950,160.782 283.600 C 160.579 284.810,160.262 286.340,160.078 287.000 L 159.744 288.200 154.995 288.313 C 148.503 288.468,148.959 289.245,150.586 280.800 C 150.947 278.930,151.408 276.500,151.611 275.400 C 151.814 274.300,152.259 271.960,152.601 270.200 C 152.942 268.440,153.413 266.010,153.648 264.800 C 153.882 263.590,154.220 261.880,154.399 261.000 C 154.578 260.120,154.994 257.870,155.324 256.000 C 155.654 254.130,156.124 252.087,156.368 251.460 L 156.811 250.319 165.105 250.491 C 172.113 250.635,173.617 250.775,174.800 251.388 M201.247 250.900 C 201.273 251.175,201.247 251.580,201.189 251.800 C 201.131 252.020,200.931 253.100,200.745 254.200 C 200.558 255.300,200.152 257.550,199.842 259.200 C 199.236 262.427,199.333 263.060,200.240 261.799 C 200.556 261.360,201.037 260.726,201.308 260.392 C 201.578 260.058,202.333 259.068,202.986 258.192 C 203.638 257.316,204.358 256.386,204.586 256.125 C 204.813 255.865,205.878 254.470,206.952 253.025 L 208.903 250.400 214.852 250.400 C 222.070 250.400,221.971 250.219,217.700 255.592 C 208.673 266.946,207.200 268.908,207.200 269.579 C 207.200 270.158,210.168 277.533,211.861 281.163 C 213.888 285.508,214.750 288.044,214.264 288.231 C 213.985 288.338,211.430 288.374,208.585 288.313 L 203.413 288.200 202.127 285.200 C 200.832 282.179,199.422 278.880,198.794 277.400 C 198.607 276.960,198.130 275.880,197.734 275.000 L 197.014 273.400 196.706 275.000 C 196.537 275.880,196.237 277.500,196.039 278.600 C 195.127 283.680,194.440 287.059,194.189 287.700 C 193.947 288.317,193.296 288.400,188.722 288.400 L 183.530 288.400 183.786 286.700 C 183.927 285.765,184.209 284.190,184.414 283.200 C 184.619 282.210,185.062 279.960,185.398 278.200 C 186.471 272.588,186.856 270.639,187.218 269.000 C 187.411 268.120,187.682 266.590,187.819 265.600 C 187.955 264.610,188.216 263.170,188.399 262.400 C 188.777 260.805,189.314 258.167,190.027 254.400 C 190.824 250.190,190.499 250.400,196.214 250.400 C 199.911 250.400,201.212 250.529,201.247 250.900 M248.628 252.300 C 248.483 253.345,248.085 255.505,247.742 257.100 L 247.120 260.000 240.643 260.000 L 234.166 260.000 233.683 261.806 C 232.851 264.917,232.621 264.763,238.300 264.888 L 243.400 265.000 243.357 266.200 C 243.275 268.467,242.107 273.287,241.554 273.637 C 241.249 273.830,238.818 273.991,236.151 273.994 L 231.302 274.000 231.052 275.565 C 230.914 276.426,230.692 277.416,230.558 277.765 C 230.342 278.328,231.012 278.401,236.457 278.406 C 243.494 278.413,243.870 278.526,243.283 280.452 C 243.057 281.194,242.758 282.610,242.620 283.600 C 242.481 284.590,242.188 286.075,241.968 286.900 L 241.569 288.400 229.785 288.400 C 216.528 288.400,217.665 288.720,218.422 285.200 C 218.635 284.210,218.980 282.410,219.188 281.200 C 219.522 279.260,219.912 277.281,221.596 269.000 C 221.820 267.900,222.269 265.560,222.594 263.800 C 223.483 258.986,224.016 256.357,224.428 254.754 C 224.633 253.958,224.800 252.869,224.800 252.334 C 224.800 250.436,225.030 250.400,237.325 250.400 L 248.891 250.400 248.628 252.300 M278.677 252.100 C 277.725 260.069,277.490 260.386,272.508 260.394 C 269.002 260.400,268.806 260.446,268.630 261.300 C 268.529 261.795,268.159 263.820,267.808 265.800 C 267.458 267.780,267.012 270.120,266.818 271.000 C 266.425 272.783,265.924 275.344,264.982 280.400 C 264.634 282.270,264.185 284.430,263.984 285.200 C 263.784 285.970,263.568 286.960,263.505 287.400 C 263.396 288.153,263.084 288.200,258.195 288.200 L 253.000 288.200 253.041 287.200 C 253.079 286.286,253.554 283.557,254.397 279.400 C 254.902 276.912,256.385 269.238,257.141 265.200 C 257.367 263.990,257.676 262.415,257.826 261.700 L 258.100 260.400 254.550 260.394 C 249.769 260.386,249.845 260.463,250.560 256.368 C 250.883 254.516,251.249 252.685,251.374 252.300 C 251.498 251.915,251.684 251.330,251.787 251.000 C 251.949 250.482,253.820 250.400,265.428 250.400 L 278.881 250.400 278.677 252.100 M165.240 260.900 C 165.053 261.395,164.775 262.610,164.621 263.600 C 164.467 264.590,164.253 265.715,164.144 266.100 C 163.976 266.693,164.224 266.800,165.754 266.800 C 168.751 266.800,170.800 265.184,170.800 262.820 C 170.800 260.429,166.039 258.784,165.240 260.900 M129.546 270.700 C 128.972 271.745,128.014 273.455,127.417 274.500 L 126.332 276.400 129.366 276.400 C 132.799 276.400,132.844 276.337,132.006 272.706 C 131.790 271.768,131.516 270.505,131.399 269.900 C 131.100 268.362,130.744 268.516,129.546 270.700 M189.000 298.685 C 189.440 298.917,190.340 299.349,191.000 299.645 C 193.366 300.707,195.356 302.331,196.793 304.373 L 197.759 305.746 194.779 308.504 C 190.102 312.834,190.486 312.721,188.139 310.459 C 180.481 303.078,167.985 314.791,173.426 324.250 C 175.622 328.067,180.594 328.583,185.644 325.519 C 188.116 324.019,187.918 323.904,190.321 328.252 C 192.882 332.889,192.551 333.407,185.161 336.318 C 165.863 343.920,152.713 319.778,167.996 304.805 C 171.814 301.065,174.646 299.435,179.400 298.244 C 180.768 297.902,188.157 298.241,189.000 298.685 M87.400 298.937 C 94.163 300.230,96.931 303.551,96.955 310.400 C 96.987 319.513,90.301 325.600,80.261 325.600 L 77.638 325.600 77.221 327.100 C 76.992 327.925,76.803 328.912,76.802 329.294 C 76.800 329.958,76.360 332.060,75.545 335.300 L 75.168 336.800 70.208 336.800 C 64.291 336.800,64.552 337.091,65.634 331.711 C 66.111 329.340,66.638 326.590,66.805 325.600 C 67.292 322.726,67.986 319.131,68.388 317.400 C 68.593 316.520,69.225 313.280,69.792 310.200 C 70.359 307.120,70.998 303.949,71.212 303.154 C 71.425 302.358,71.600 301.246,71.600 300.682 C 71.600 298.631,72.322 298.400,78.729 298.400 C 81.971 298.401,85.854 298.641,87.400 298.937 M113.757 300.200 C 113.733 301.080,113.513 302.790,113.268 304.000 C 112.337 308.586,111.534 312.670,111.184 314.600 C 110.984 315.700,110.534 318.040,110.183 319.800 C 109.833 321.560,109.446 323.855,109.323 324.900 L 109.098 326.800 115.282 326.800 C 122.870 326.800,122.111 325.964,120.852 332.939 C 120.070 337.270,121.549 336.827,108.276 336.706 C 95.000 336.585,95.911 336.876,96.750 333.020 C 97.149 331.190,97.594 328.928,98.844 322.400 C 99.076 321.190,99.417 319.480,99.602 318.600 C 99.787 317.720,100.234 315.380,100.594 313.400 C 100.955 311.420,101.407 309.080,101.600 308.200 C 101.793 307.320,102.258 304.980,102.634 303.000 C 103.520 298.342,103.507 298.350,109.193 298.488 L 113.800 298.600 113.757 300.200 M151.012 299.500 C 151.137 300.105,151.398 301.230,151.591 302.000 C 151.784 302.770,152.235 304.660,152.592 306.200 C 152.950 307.740,153.406 309.630,153.606 310.400 C 153.807 311.170,154.250 313.060,154.592 314.600 C 154.934 316.140,155.386 318.030,155.596 318.800 C 155.807 319.570,156.442 322.270,157.009 324.800 C 157.576 327.330,158.199 330.030,158.395 330.800 C 160.047 337.320,160.390 336.859,153.999 336.713 L 149.065 336.600 148.478 334.490 L 147.892 332.380 141.715 332.490 L 135.538 332.600 134.439 334.600 L 133.339 336.600 127.789 336.712 C 120.423 336.860,120.522 336.931,123.100 333.333 C 123.595 332.642,124.000 331.976,124.000 331.852 C 124.000 331.729,128.060 325.204,133.021 317.353 C 137.983 309.501,142.306 302.610,142.627 302.039 C 143.372 300.713,144.092 299.580,144.600 298.937 C 145.501 297.796,150.755 298.257,151.012 299.500 M226.144 300.600 C 226.114 301.700,225.844 303.860,225.544 305.400 L 225.000 308.200 218.600 308.306 C 211.348 308.426,211.200 308.489,211.200 311.476 L 211.200 313.200 216.229 313.200 L 221.258 313.200 220.995 315.300 C 220.850 316.455,220.509 318.390,220.236 319.600 L 219.741 321.800 214.530 321.911 L 209.320 322.022 208.860 323.558 C 207.856 326.908,207.606 326.766,214.700 326.890 L 221.000 327.000 220.864 328.600 C 220.789 329.480,220.427 331.640,220.060 333.400 L 219.391 336.600 207.596 336.600 C 196.051 336.600,195.801 336.583,195.848 335.800 C 195.907 334.818,196.530 331.440,198.174 323.200 C 198.504 321.550,198.875 319.660,199.000 319.000 C 199.405 316.860,199.977 313.869,200.606 310.600 C 200.945 308.840,201.392 306.500,201.599 305.400 C 202.469 300.782,202.941 298.983,203.358 298.703 C 203.601 298.539,208.840 298.449,215.000 298.503 L 226.200 298.600 226.144 300.600 M80.471 310.500 C 79.176 316.461,79.158 316.428,83.297 315.744 C 88.449 314.892,88.156 308.445,82.964 308.413 L 80.927 308.400 80.471 310.500 M143.736 318.317 C 143.299 319.133,142.369 320.825,141.671 322.078 C 140.035 325.011,139.938 324.854,143.300 324.718 C 146.621 324.583,146.450 324.949,145.548 319.882 C 144.962 316.588,144.757 316.411,143.736 318.317 M235.200 327.600 C 236.576 328.976,236.797 329.438,236.781 330.900 C 236.703 337.827,226.851 340.815,224.780 334.540 C 222.854 328.703,230.926 323.326,235.200 327.600 " stroke="none" fill="#546c54" fill-rule="evenodd"></path><path id="path2" d="M49.680 49.680 C 48.980 50.380,48.980 349.620,49.680 350.320 C 50.380 351.020,349.620 351.020,350.320 350.320 C 351.020 349.620,351.020 50.380,350.320 49.680 C 349.620 48.980,50.380 48.980,49.680 49.680 M350.200 200.000 L 350.200 350.200 200.000 350.200 L 49.800 350.200 49.698 200.400 C 49.641 118.010,49.681 50.375,49.785 50.099 C 49.937 49.700,80.207 49.619,200.088 49.699 L 350.200 49.800 350.200 200.000 M83.476 202.297 L 96.352 202.411 96.518 203.809 L 96.684 205.207 96.642 203.703 L 96.600 202.200 83.600 202.191 L 70.600 202.183 83.476 202.297 M136.600 204.800 C 136.448 205.491,136.407 206.141,136.509 206.242 C 136.611 206.344,136.809 205.853,136.950 205.150 C 137.283 203.483,136.960 203.160,136.600 204.800 M95.429 209.029 C 95.281 209.615,95.238 210.172,95.332 210.266 C 95.427 210.360,95.624 209.958,95.771 209.371 C 95.919 208.785,95.962 208.228,95.868 208.134 C 95.773 208.040,95.576 208.442,95.429 209.029 M99.449 208.615 C 99.312 208.973,99.215 209.566,99.234 209.933 C 99.253 210.300,99.427 210.069,99.621 209.420 C 99.998 208.158,99.865 207.533,99.449 208.615 M68.093 210.800 C 68.093 211.570,68.175 211.885,68.276 211.500 C 68.376 211.115,68.376 210.485,68.276 210.100 C 68.175 209.715,68.093 210.030,68.093 210.800 M108.752 215.113 C 108.621 215.907,108.679 216.281,108.901 216.059 C 109.103 215.857,109.201 215.267,109.119 214.746 C 108.993 213.945,108.937 214.002,108.752 215.113 M134.600 215.200 C 134.448 215.891,134.407 216.541,134.509 216.642 C 134.611 216.744,134.809 216.253,134.950 215.550 C 135.283 213.883,134.960 213.560,134.600 215.200 M85.850 215.650 C 85.517 217.317,85.840 217.640,86.200 216.000 C 86.352 215.309,86.393 214.659,86.291 214.558 C 86.189 214.456,85.991 214.947,85.850 215.650 M144.902 216.400 C 145.034 216.884,146.021 217.022,150.017 217.113 C 153.337 217.189,155.083 217.386,155.315 217.713 C 155.563 218.063,155.615 218.031,155.498 217.600 C 155.366 217.116,154.379 216.978,150.383 216.887 C 147.063 216.811,145.317 216.614,145.085 216.287 C 144.837 215.937,144.785 215.969,144.902 216.400 M111.315 216.696 C 112.588 216.776,114.568 216.775,115.715 216.694 C 116.862 216.614,115.820 216.549,113.400 216.550 C 110.980 216.551,110.042 216.616,111.315 216.696 M133.800 219.200 C 133.648 219.891,133.607 220.541,133.709 220.642 C 133.811 220.744,134.009 220.253,134.150 219.550 C 134.483 217.883,134.160 217.560,133.800 219.200 M74.600 219.600 C 74.448 220.291,74.407 220.941,74.509 221.042 C 74.611 221.144,74.809 220.653,74.950 219.950 C 75.283 218.283,74.960 217.960,74.600 219.600 M73.800 223.600 C 73.648 224.291,73.607 224.941,73.709 225.042 C 73.811 225.144,74.009 224.653,74.150 223.950 C 74.483 222.283,74.160 221.960,73.800 223.600 M96.649 223.015 C 96.512 223.373,96.415 223.966,96.434 224.333 C 96.453 224.700,96.627 224.469,96.821 223.820 C 97.198 222.558,97.065 221.933,96.649 223.015 M132.849 224.200 C 132.816 224.640,132.696 225.450,132.583 226.000 L 132.377 227.000 132.806 226.019 C 133.042 225.479,133.161 224.669,133.072 224.219 C 132.913 223.421,132.907 223.421,132.849 224.200 M84.054 225.067 C 84.025 225.544,83.896 226.264,83.770 226.667 C 83.552 227.361,83.564 227.362,83.996 226.688 C 84.247 226.297,84.375 225.577,84.281 225.088 C 84.109 224.201,84.109 224.201,84.054 225.067 M111.274 226.291 C 115.149 226.414,115.565 226.500,115.727 227.219 C 115.871 227.856,115.896 227.833,115.853 227.106 C 115.801 226.224,115.682 226.199,111.400 226.178 L 107.000 226.155 111.274 226.291 M125.829 228.229 C 125.681 228.815,125.638 229.372,125.732 229.466 C 125.827 229.560,126.024 229.158,126.171 228.571 C 126.319 227.985,126.362 227.428,126.268 227.334 C 126.173 227.240,125.976 227.642,125.829 228.229 M72.849 228.600 C 72.816 229.040,72.696 229.850,72.583 230.400 L 72.377 231.400 72.806 230.419 C 73.042 229.879,73.161 229.069,73.072 228.619 C 72.913 227.821,72.907 227.821,72.849 228.600 M131.800 229.600 C 131.648 230.291,131.607 230.941,131.709 231.042 C 131.811 231.144,132.009 230.653,132.150 229.950 C 132.483 228.283,132.160 227.960,131.800 229.600 M106.046 229.267 C 106.021 229.634,105.896 230.264,105.770 230.667 C 105.552 231.362,105.563 231.363,105.997 230.687 C 106.248 230.296,106.373 229.666,106.273 229.287 C 106.111 228.668,106.088 228.666,106.046 229.267 M83.029 230.229 C 82.881 230.815,82.838 231.372,82.932 231.466 C 83.027 231.560,83.224 231.158,83.371 230.571 C 83.519 229.985,83.562 229.428,83.468 229.334 C 83.373 229.240,83.176 229.642,83.029 230.229 M142.750 230.511 C 142.921 230.682,145.838 230.771,149.231 230.710 L 155.400 230.598 148.919 230.399 C 145.354 230.289,142.578 230.340,142.750 230.511 M131.056 233.284 C 130.921 233.788,130.827 234.560,130.846 235.000 C 130.865 235.440,131.045 235.098,131.246 234.240 C 131.636 232.578,131.470 231.740,131.056 233.284 M71.800 234.000 C 71.648 234.691,71.607 235.341,71.709 235.442 C 71.811 235.544,72.009 235.053,72.150 234.350 C 72.483 232.683,72.160 232.360,71.800 234.000 M105.000 234.000 C 104.848 234.691,104.807 235.341,104.909 235.442 C 105.011 235.544,105.209 235.053,105.350 234.350 C 105.683 232.683,105.360 232.360,105.000 234.000 M113.849 235.815 C 113.712 236.173,113.618 236.856,113.641 237.333 C 113.667 237.881,113.803 237.686,114.010 236.803 C 114.360 235.316,114.265 234.733,113.849 235.815 M70.968 238.230 C 70.581 240.292,70.949 240.442,76.034 240.299 L 80.600 240.171 75.849 240.086 L 71.098 240.000 71.354 238.400 C 71.671 236.416,71.336 236.268,70.968 238.230 M93.772 237.768 C 93.191 240.086,93.403 240.198,98.405 240.219 L 103.000 240.238 98.449 240.106 L 93.898 239.974 94.111 238.387 C 94.347 236.626,94.149 236.265,93.772 237.768 M116.316 240.297 C 117.699 240.375,119.859 240.374,121.116 240.295 C 122.372 240.216,121.240 240.152,118.600 240.153 C 115.960 240.153,114.932 240.218,116.316 240.297 M136.324 240.299 C 139.473 240.367,144.513 240.367,147.524 240.299 C 150.536 240.231,147.960 240.176,141.800 240.176 C 135.640 240.176,133.176 240.232,136.324 240.299 M130.749 250.700 C 130.268 251.314,130.276 251.341,130.815 250.921 C 131.154 250.658,132.594 250.378,134.015 250.298 L 136.600 250.154 133.949 250.077 C 131.838 250.016,131.186 250.143,130.749 250.700 M156.661 250.700 C 156.558 250.865,158.753 250.953,161.537 250.896 C 170.879 250.704,171.856 250.557,164.324 250.478 C 160.212 250.435,156.763 250.535,156.661 250.700 M191.061 250.700 C 190.959 250.865,193.153 251.000,195.938 251.000 C 200.772 251.000,200.995 251.036,200.883 251.800 C 200.793 252.419,200.853 252.473,201.146 252.036 C 202.069 250.667,201.260 250.400,196.181 250.400 C 193.467 250.400,191.164 250.535,191.061 250.700 M208.349 251.100 C 207.865 251.717,207.874 251.742,208.428 251.311 C 208.840 250.990,211.104 250.780,215.028 250.700 L 221.000 250.577 214.949 250.488 C 209.597 250.410,208.835 250.481,208.349 251.100 M225.280 250.880 C 225.016 251.144,224.811 251.639,224.825 251.980 C 224.841 252.360,224.991 252.252,225.212 251.700 L 225.574 250.800 236.959 250.800 L 248.344 250.800 248.518 251.700 C 248.666 252.472,248.699 252.443,248.746 251.500 L 248.800 250.400 237.280 250.400 C 228.853 250.400,225.631 250.529,225.280 250.880 M251.862 250.700 C 251.760 250.865,257.779 251.000,265.238 251.000 C 272.697 251.000,278.800 250.865,278.800 250.700 C 278.800 250.535,272.781 250.400,265.424 250.400 C 258.067 250.400,251.964 250.535,251.862 250.700 M219.200 253.200 C 218.503 254.080,218.023 254.800,218.133 254.800 C 218.243 254.800,218.903 254.080,219.600 253.200 C 220.297 252.320,220.777 251.600,220.667 251.600 C 220.557 251.600,219.897 252.320,219.200 253.200 M278.446 252.467 C 278.421 252.834,278.296 253.464,278.170 253.867 C 277.952 254.562,277.963 254.563,278.397 253.887 C 278.648 253.496,278.773 252.866,278.673 252.487 C 278.511 251.868,278.488 251.866,278.446 252.467 M178.197 254.001 C 180.093 256.218,180.120 256.242,179.686 255.400 C 179.459 254.960,178.762 254.151,178.137 253.601 L 177.000 252.603 178.197 254.001 M101.404 254.796 C 100.774 255.454,100.335 256.056,100.429 256.134 C 100.523 256.212,101.113 255.674,101.739 254.938 C 103.154 253.277,102.945 253.188,101.404 254.796 M189.850 254.850 C 189.517 256.517,189.840 256.840,190.200 255.200 C 190.352 254.509,190.393 253.859,190.291 253.758 C 190.189 253.656,189.991 254.147,189.850 254.850 M205.923 254.300 C 205.218 255.121,204.690 256.000,204.901 256.000 C 204.983 256.000,205.449 255.460,205.937 254.800 C 206.901 253.496,206.892 253.172,205.923 254.300 M247.822 255.022 C 247.672 255.825,247.628 256.562,247.726 256.660 C 247.824 256.757,248.027 256.181,248.178 255.378 C 248.328 254.575,248.372 253.838,248.274 253.740 C 248.176 253.643,247.973 254.219,247.822 255.022 M200.250 255.250 C 199.917 256.917,200.240 257.240,200.600 255.600 C 200.752 254.909,200.793 254.259,200.691 254.158 C 200.589 254.056,200.391 254.547,200.250 255.250 M138.056 256.400 C 138.056 256.730,138.211 257.360,138.400 257.800 C 138.617 258.304,138.744 258.378,138.744 258.000 C 138.744 257.670,138.589 257.040,138.400 256.600 C 138.183 256.096,138.056 256.022,138.056 256.400 M189.000 259.200 C 188.848 259.891,188.807 260.541,188.909 260.642 C 189.011 260.744,189.209 260.253,189.350 259.550 C 189.683 257.883,189.360 257.560,189.000 259.200 M154.600 259.600 C 154.448 260.291,154.407 260.941,154.509 261.042 C 154.611 261.144,154.809 260.653,154.950 259.950 C 155.283 258.283,154.960 257.960,154.600 259.600 M180.977 261.453 C 180.956 263.954,180.987 264.062,181.325 262.665 C 181.541 261.772,181.551 260.624,181.348 259.918 C 181.064 258.928,180.996 259.209,180.977 261.453 M95.578 261.500 L 94.200 263.000 95.700 261.622 C 97.096 260.338,97.384 260.000,97.078 260.000 C 97.012 260.000,96.337 260.675,95.578 261.500 M251.800 260.254 C 254.628 260.550,258.312 260.577,258.139 260.300 C 258.037 260.135,256.298 260.029,254.276 260.064 C 252.254 260.099,251.140 260.185,251.800 260.254 M268.667 260.267 C 268.520 260.413,268.403 260.728,268.406 260.967 C 268.410 261.236,268.529 261.216,268.720 260.916 C 268.914 260.610,270.421 260.383,272.814 260.299 L 276.600 260.166 272.767 260.083 C 270.658 260.037,268.813 260.120,268.667 260.267 M198.910 262.802 C 198.953 263.373,199.094 263.454,199.484 263.131 C 200.132 262.592,200.129 262.535,199.427 262.266 C 199.044 262.119,198.872 262.298,198.910 262.802 M257.450 263.250 C 257.309 263.953,257.269 264.602,257.359 264.692 C 257.450 264.783,257.648 264.291,257.800 263.600 C 257.952 262.909,257.993 262.259,257.891 262.158 C 257.789 262.056,257.591 262.547,257.450 263.250 M153.800 263.600 C 153.648 264.291,153.607 264.941,153.709 265.042 C 153.811 265.144,154.009 264.653,154.150 263.950 C 154.483 262.283,154.160 261.960,153.800 263.600 M92.778 264.700 L 91.400 266.200 92.900 264.822 C 94.296 263.538,94.584 263.200,94.278 263.200 C 94.212 263.200,93.537 263.875,92.778 264.700 M238.149 265.099 L 243.298 265.225 243.080 266.912 C 242.871 268.523,242.881 268.542,243.282 267.322 C 244.074 264.919,243.801 264.790,238.113 264.887 L 233.000 264.974 238.149 265.099 M256.600 267.600 C 256.448 268.291,256.407 268.941,256.509 269.042 C 256.611 269.144,256.809 268.653,256.950 267.950 C 257.091 267.247,257.131 266.598,257.041 266.508 C 256.950 266.417,256.752 266.909,256.600 267.600 M89.775 268.100 L 88.600 269.400 89.900 268.225 C 91.112 267.130,91.384 266.800,91.075 266.800 C 91.006 266.800,90.421 267.385,89.775 268.100 M141.044 269.000 C 141.373 270.471,141.602 270.790,141.594 269.767 C 141.591 269.345,141.405 268.730,141.182 268.400 C 140.885 267.962,140.848 268.124,141.044 269.000 M152.849 268.600 C 152.816 269.040,152.696 269.850,152.583 270.400 L 152.377 271.400 152.806 270.419 C 153.042 269.879,153.161 269.069,153.072 268.619 C 152.913 267.821,152.907 267.821,152.849 268.600 M187.029 269.429 C 186.881 270.015,186.838 270.572,186.932 270.666 C 187.027 270.760,187.224 270.358,187.371 269.771 C 187.519 269.185,187.562 268.628,187.468 268.534 C 187.373 268.440,187.176 268.842,187.029 269.429 M177.178 270.700 L 175.800 272.200 177.300 270.822 C 178.696 269.538,178.984 269.200,178.678 269.200 C 178.612 269.200,177.937 269.875,177.178 270.700 M87.200 270.732 C 86.294 271.615,86.283 271.664,87.078 271.251 C 87.560 271.001,88.073 270.605,88.218 270.371 C 88.710 269.575,88.202 269.755,87.200 270.732 M142.068 273.000 C 142.062 273.440,142.211 274.160,142.400 274.600 C 142.838 275.619,142.838 274.568,142.400 273.200 C 142.143 272.396,142.077 272.357,142.068 273.000 M151.800 274.000 C 151.648 274.691,151.607 275.341,151.709 275.442 C 151.811 275.544,152.009 275.053,152.150 274.350 C 152.483 272.683,152.160 272.360,151.800 274.000 M265.850 274.050 C 265.709 274.753,265.669 275.402,265.759 275.492 C 265.850 275.583,266.048 275.091,266.200 274.400 C 266.352 273.709,266.393 273.059,266.291 272.958 C 266.189 272.856,265.991 273.347,265.850 274.050 M233.717 273.897 C 235.211 273.974,237.551 273.974,238.917 273.896 C 240.282 273.818,239.060 273.755,236.200 273.755 C 233.340 273.756,232.222 273.820,233.717 273.897 M67.000 275.600 C 66.848 276.291,66.807 276.941,66.909 277.042 C 67.011 277.144,67.209 276.653,67.350 275.950 C 67.683 274.283,67.360 273.960,67.000 275.600 M95.502 275.800 C 95.607 276.350,95.762 276.800,95.847 276.800 C 95.931 276.800,96.000 276.350,96.000 275.800 C 96.000 275.250,95.845 274.800,95.655 274.800 C 95.466 274.800,95.397 275.250,95.502 275.800 M93.381 277.300 L 91.800 279.000 93.500 277.419 C 95.081 275.948,95.384 275.600,95.081 275.600 C 95.016 275.600,94.251 276.365,93.381 277.300 M254.600 278.000 C 254.448 278.691,254.407 279.341,254.509 279.442 C 254.611 279.544,254.809 279.053,254.950 278.350 C 255.091 277.647,255.131 276.998,255.041 276.908 C 254.950 276.817,254.752 277.309,254.600 278.000 M151.049 277.815 C 150.912 278.173,150.818 278.856,150.841 279.333 C 150.867 279.881,151.003 279.686,151.210 278.803 C 151.560 277.316,151.465 276.733,151.049 277.815 M219.400 279.600 C 219.248 280.291,219.207 280.941,219.309 281.042 C 219.411 281.144,219.609 280.653,219.750 279.950 C 219.891 279.247,219.931 278.598,219.841 278.508 C 219.750 278.417,219.552 278.909,219.400 279.600 M233.519 278.698 C 235.344 278.772,238.224 278.772,239.919 278.697 C 241.614 278.622,240.120 278.561,236.600 278.562 C 233.080 278.562,231.694 278.624,233.519 278.698 M161.254 279.467 C 161.225 279.944,161.096 280.664,160.970 281.067 C 160.752 281.761,160.764 281.762,161.196 281.088 C 161.447 280.697,161.575 279.977,161.481 279.488 C 161.309 278.601,161.309 278.601,161.254 279.467 M195.450 280.050 C 195.117 281.717,195.440 282.040,195.800 280.400 C 195.952 279.709,195.993 279.059,195.891 278.958 C 195.789 278.856,195.591 279.347,195.450 280.050 M243.029 279.829 C 242.881 280.415,242.838 280.972,242.932 281.066 C 243.027 281.160,243.224 280.758,243.371 280.171 C 243.519 279.585,243.562 279.028,243.468 278.934 C 243.373 278.840,243.176 279.242,243.029 279.829 M94.600 281.200 C 94.448 281.891,94.407 282.541,94.509 282.642 C 94.611 282.744,94.809 282.253,94.950 281.550 C 95.283 279.883,94.960 279.560,94.600 281.200 M105.000 281.600 C 104.848 282.291,104.807 282.941,104.909 283.042 C 105.011 283.144,105.209 282.653,105.350 281.950 C 105.683 280.283,105.360 279.960,105.000 281.600 M253.800 282.000 C 253.648 282.691,253.607 283.341,253.709 283.442 C 253.811 283.544,254.009 283.053,254.150 282.350 C 254.291 281.647,254.331 280.998,254.241 280.908 C 254.150 280.817,253.952 281.309,253.800 282.000 M184.200 284.000 C 184.048 284.691,184.007 285.341,184.109 285.442 C 184.211 285.544,184.409 285.053,184.550 284.350 C 184.883 282.683,184.560 282.360,184.200 284.000 M242.256 283.684 C 242.121 284.188,242.027 284.960,242.046 285.400 C 242.065 285.840,242.245 285.498,242.446 284.640 C 242.836 282.978,242.670 282.140,242.256 283.684 M264.054 283.467 C 264.025 283.944,263.896 284.664,263.770 285.067 C 263.552 285.761,263.564 285.762,263.996 285.088 C 264.247 284.697,264.375 283.977,264.281 283.488 C 264.109 282.601,264.109 282.601,264.054 283.467 M82.034 283.400 C 82.034 283.620,82.378 284.430,82.800 285.200 C 83.222 285.970,83.566 286.420,83.566 286.200 C 83.566 285.980,83.222 285.170,82.800 284.400 C 82.378 283.630,82.034 283.180,82.034 283.400 M149.800 284.400 C 149.648 285.091,149.607 285.741,149.709 285.842 C 149.811 285.944,150.009 285.453,150.150 284.750 C 150.483 283.083,150.160 282.760,149.800 284.400 M160.200 284.800 C 160.048 285.491,160.007 286.141,160.109 286.242 C 160.211 286.344,160.409 285.853,160.550 285.150 C 160.883 283.483,160.560 283.160,160.200 284.800 M93.800 285.200 C 93.648 285.891,93.607 286.541,93.709 286.642 C 93.811 286.744,94.009 286.253,94.150 285.550 C 94.483 283.883,94.160 283.560,93.800 285.200 M75.429 286.229 C 75.281 286.815,75.238 287.372,75.332 287.466 C 75.427 287.560,75.624 287.158,75.771 286.571 C 75.919 285.985,75.962 285.428,75.868 285.334 C 75.773 285.240,75.576 285.642,75.429 286.229 M134.456 285.600 C 134.456 285.930,134.611 286.560,134.800 287.000 C 135.017 287.504,135.144 287.578,135.144 287.200 C 135.144 286.870,134.989 286.240,134.800 285.800 C 134.583 285.296,134.456 285.222,134.456 285.600 M85.387 286.414 C 84.961 286.885,84.387 287.128,84.025 286.990 C 83.521 286.799,83.498 286.851,83.905 287.262 C 84.314 287.673,84.619 287.563,85.496 286.685 C 86.093 286.088,86.479 285.600,86.353 285.600 C 86.227 285.600,85.792 285.966,85.387 286.414 M108.014 286.774 C 107.483 287.766,107.487 288.400,108.024 288.400 C 108.257 288.400,108.338 288.224,108.205 288.008 C 108.072 287.793,108.158 287.253,108.396 286.808 C 108.633 286.364,108.738 286.000,108.628 286.000 C 108.518 286.000,108.242 286.348,108.014 286.774 M64.800 287.400 C 64.800 287.950,64.955 288.400,65.145 288.400 C 65.334 288.400,65.403 287.950,65.298 287.400 C 65.193 286.850,65.038 286.400,64.953 286.400 C 64.869 286.400,64.800 286.850,64.800 287.400 M218.000 287.400 C 218.000 287.950,218.155 288.400,218.345 288.400 C 218.534 288.400,218.603 287.950,218.498 287.400 C 218.393 286.850,218.238 286.400,218.153 286.400 C 218.069 286.400,218.000 286.850,218.000 287.400 M72.229 299.029 C 71.883 299.374,71.603 299.959,71.606 300.329 C 71.610 300.788,71.771 300.684,72.117 300.000 C 72.618 299.009,72.679 298.998,79.211 298.785 L 85.800 298.570 79.329 298.485 C 73.901 298.414,72.756 298.501,72.229 299.029 M109.053 298.693 L 113.708 298.826 113.483 300.913 C 113.312 302.505,113.351 302.766,113.648 302.014 C 113.862 301.472,113.984 300.482,113.919 299.814 L 113.800 298.600 109.099 298.580 L 104.399 298.560 109.053 298.693 M150.533 299.371 C 150.785 299.905,151.055 300.278,151.132 300.201 C 151.381 299.953,150.758 298.400,150.411 298.400 C 150.226 298.400,150.281 298.837,150.533 299.371 M203.300 298.665 C 203.025 298.776,202.800 299.054,202.800 299.282 C 202.800 299.548,203.001 299.531,203.356 299.237 C 203.754 298.906,207.094 298.807,215.118 298.888 C 221.281 298.949,226.241 298.865,226.139 298.700 C 225.935 298.372,204.110 298.338,203.300 298.665 M202.250 301.650 C 201.917 303.317,202.240 303.640,202.600 302.000 C 202.752 301.309,202.793 300.659,202.691 300.558 C 202.589 300.456,202.391 300.947,202.250 301.650 M226.046 301.267 C 226.021 301.634,225.896 302.264,225.770 302.667 C 225.552 303.362,225.563 303.363,225.997 302.687 C 226.248 302.296,226.373 301.666,226.273 301.287 C 226.111 300.668,226.088 300.666,226.046 301.267 M151.444 302.600 C 151.773 304.071,152.002 304.390,151.994 303.367 C 151.991 302.945,151.805 302.330,151.582 302.000 C 151.285 301.562,151.248 301.724,151.444 302.600 M168.260 304.468 L 165.800 306.935 168.400 304.588 C 169.830 303.297,171.075 302.187,171.167 302.120 C 171.258 302.054,171.195 302.000,171.027 302.000 C 170.858 302.000,169.613 303.110,168.260 304.468 M102.250 304.450 C 101.917 306.117,102.240 306.440,102.600 304.800 C 102.752 304.109,102.793 303.459,102.691 303.358 C 102.589 303.256,102.391 303.747,102.250 304.450 M112.622 305.422 C 112.472 306.225,112.428 306.962,112.526 307.060 C 112.624 307.157,112.827 306.581,112.978 305.778 C 113.128 304.975,113.172 304.238,113.074 304.140 C 112.976 304.043,112.773 304.619,112.622 305.422 M201.400 306.000 C 201.248 306.691,201.207 307.341,201.309 307.442 C 201.411 307.544,201.609 307.053,201.750 306.350 C 202.083 304.683,201.760 304.360,201.400 306.000 M152.456 306.800 C 152.456 307.130,152.611 307.760,152.800 308.200 C 153.017 308.704,153.144 308.778,153.144 308.400 C 153.144 308.070,152.989 307.440,152.800 307.000 C 152.583 306.496,152.456 306.422,152.456 306.800 M195.178 307.900 L 193.800 309.400 195.300 308.022 C 196.696 306.738,196.984 306.400,196.678 306.400 C 196.612 306.400,195.937 307.075,195.178 307.900 M101.400 308.800 C 101.248 309.491,101.207 310.141,101.309 310.242 C 101.411 310.344,101.609 309.853,101.750 309.150 C 102.083 307.483,101.760 307.160,101.400 308.800 M187.200 309.325 C 187.200 309.394,187.785 309.979,188.500 310.625 L 189.800 311.800 188.625 310.500 C 187.530 309.288,187.200 309.016,187.200 309.325 M191.775 310.900 L 190.600 312.200 191.900 311.025 C 193.112 309.930,193.384 309.600,193.075 309.600 C 193.006 309.600,192.421 310.185,191.775 310.900 M111.654 310.667 C 111.625 311.144,111.496 311.864,111.370 312.267 C 111.152 312.961,111.164 312.962,111.596 312.288 C 111.847 311.897,111.975 311.177,111.881 310.688 C 111.709 309.801,111.709 309.801,111.654 310.667 M153.444 311.000 C 153.773 312.471,154.002 312.790,153.994 311.767 C 153.991 311.345,153.805 310.730,153.582 310.400 C 153.285 309.962,153.248 310.124,153.444 311.000 M200.250 312.050 C 199.917 313.717,200.240 314.040,200.600 312.400 C 200.752 311.709,200.793 311.059,200.691 310.958 C 200.589 310.856,200.391 311.347,200.250 312.050 M210.961 312.400 L 211.000 313.400 215.874 313.512 C 220.548 313.620,220.755 313.660,220.919 314.512 C 221.064 315.259,221.100 315.225,221.146 314.300 L 221.200 313.200 216.227 313.200 C 211.385 313.200,211.249 313.176,211.088 312.300 C 210.944 311.517,210.928 311.530,210.961 312.400 M100.449 313.800 C 100.416 314.240,100.296 315.050,100.183 315.600 L 99.977 316.600 100.406 315.619 C 100.642 315.079,100.761 314.269,100.672 313.819 C 100.513 313.021,100.507 313.021,100.449 313.800 M110.650 315.650 C 110.317 317.317,110.640 317.640,111.000 316.000 C 111.152 315.309,111.193 314.659,111.091 314.558 C 110.989 314.456,110.791 314.947,110.650 315.650 M199.429 316.229 C 199.281 316.815,199.238 317.372,199.332 317.466 C 199.427 317.560,199.624 317.158,199.771 316.571 C 199.919 315.985,199.962 315.428,199.868 315.334 C 199.773 315.240,199.576 315.642,199.429 316.229 M161.452 317.700 C 161.133 318.892,161.184 323.219,161.528 324.085 C 161.678 324.462,161.800 322.977,161.800 320.785 C 161.800 316.413,161.799 316.405,161.452 317.700 M93.999 319.300 C 93.410 320.104,93.313 320.384,93.745 320.033 C 94.401 319.500,95.393 318.000,95.089 318.000 C 95.013 318.000,94.522 318.585,93.999 319.300 M99.429 319.029 C 99.281 319.615,99.238 320.172,99.332 320.266 C 99.427 320.360,99.624 319.958,99.771 319.371 C 99.919 318.785,99.962 318.228,99.868 318.134 C 99.773 318.040,99.576 318.442,99.429 319.029 M109.856 319.684 C 109.721 320.188,109.627 320.960,109.646 321.400 C 109.665 321.840,109.845 321.498,110.046 320.640 C 110.436 318.978,110.270 318.140,109.856 319.684 M198.649 320.215 C 198.512 320.573,198.418 321.256,198.441 321.733 C 198.467 322.281,198.603 322.086,198.810 321.203 C 199.160 319.716,199.065 319.133,198.649 320.215 M146.084 323.117 C 146.148 324.042,146.343 324.799,146.518 324.799 C 146.693 324.800,146.714 324.125,146.565 323.300 C 146.187 321.206,145.947 321.115,146.084 323.117 M98.656 322.884 C 98.521 323.388,98.427 324.160,98.446 324.600 C 98.465 325.040,98.645 324.698,98.846 323.840 C 99.236 322.178,99.070 321.340,98.656 322.884 M208.629 323.029 C 208.481 323.615,208.438 324.172,208.532 324.266 C 208.627 324.360,208.824 323.958,208.971 323.371 C 209.119 322.785,209.162 322.228,209.068 322.134 C 208.973 322.040,208.776 322.442,208.629 323.029 M67.000 324.000 C 66.848 324.691,66.807 325.341,66.909 325.442 C 67.011 325.544,67.209 325.053,67.350 324.350 C 67.683 322.683,67.360 322.360,67.000 324.000 M128.953 323.700 C 127.576 326.036,127.486 326.235,128.187 325.400 C 129.000 324.432,129.700 323.200,129.438 323.200 C 129.333 323.200,129.115 323.425,128.953 323.700 M108.961 326.000 L 109.000 327.000 115.463 327.200 C 119.017 327.310,121.842 327.265,121.739 327.100 C 121.637 326.935,118.785 326.800,115.403 326.800 C 109.341 326.800,109.251 326.787,109.088 325.900 C 108.944 325.117,108.928 325.130,108.961 326.000 M81.700 325.476 C 82.085 325.576,82.715 325.576,83.100 325.476 C 83.485 325.375,83.170 325.293,82.400 325.293 C 81.630 325.293,81.315 325.375,81.700 325.476 M197.450 326.450 C 197.117 328.117,197.440 328.440,197.800 326.800 C 197.952 326.109,197.993 325.459,197.891 325.358 C 197.789 325.256,197.591 325.747,197.450 326.450 M208.128 326.200 C 208.206 326.957,208.545 327.006,214.388 327.111 C 218.691 327.188,220.672 327.370,220.914 327.711 C 221.164 328.064,221.215 328.033,221.098 327.600 C 220.963 327.105,219.838 326.981,214.695 326.890 C 209.189 326.793,208.431 326.699,208.250 326.090 C 208.096 325.570,208.066 325.597,208.128 326.200 M230.000 326.225 C 231.403 326.535,233.918 326.590,233.743 326.307 C 233.638 326.138,232.618 326.021,231.476 326.046 C 230.334 326.072,229.670 326.152,230.000 326.225 M97.450 329.250 C 97.117 330.917,97.440 331.240,97.800 329.600 C 97.952 328.909,97.993 328.259,97.891 328.158 C 97.789 328.056,97.591 328.547,97.450 329.250 M236.393 330.919 L 236.585 333.000 236.718 331.246 C 236.791 330.281,236.705 329.344,236.526 329.165 C 236.347 328.985,236.287 329.775,236.393 330.919 M124.614 330.635 C 124.241 331.204,124.005 331.738,124.089 331.822 C 124.173 331.907,124.558 331.441,124.944 330.788 C 125.806 329.328,125.548 329.209,124.614 330.635 M196.600 330.800 C 196.448 331.491,196.407 332.141,196.509 332.242 C 196.611 332.344,196.809 331.853,196.950 331.150 C 197.283 329.483,196.960 329.160,196.600 330.800 M191.610 331.133 C 191.981 331.897,191.931 332.224,191.332 332.933 L 190.600 333.800 191.500 333.038 C 192.568 332.133,192.588 331.988,191.778 330.976 C 191.185 330.236,191.177 330.243,191.610 331.133 M164.800 331.725 C 164.800 331.794,165.385 332.379,166.100 333.025 L 167.400 334.200 166.225 332.900 C 165.130 331.688,164.800 331.416,164.800 331.725 M141.972 332.294 C 147.215 332.405,147.970 332.505,148.150 333.110 C 148.304 333.630,148.334 333.603,148.272 333.000 C 148.194 332.239,147.890 332.199,142.095 332.184 L 135.999 332.168 141.972 332.294 M96.600 333.600 C 96.448 334.291,96.407 334.941,96.509 335.042 C 96.611 335.144,96.809 334.653,96.950 333.950 C 97.283 332.283,96.960 331.960,96.600 333.600 M75.429 334.629 C 75.281 335.215,75.238 335.772,75.332 335.866 C 75.427 335.960,75.624 335.558,75.771 334.971 C 75.919 334.385,75.962 333.828,75.868 333.734 C 75.773 333.640,75.576 334.042,75.429 334.629 M234.629 335.562 L 233.458 337.000 234.809 335.713 C 235.551 335.005,236.078 334.358,235.979 334.275 C 235.881 334.192,235.273 334.771,234.629 335.562 M64.934 335.600 L 65.000 336.600 70.000 336.618 L 75.000 336.636 70.126 336.506 C 65.465 336.382,65.244 336.338,65.061 335.488 C 64.896 334.726,64.878 334.742,64.934 335.600 M159.232 335.500 C 159.197 336.492,149.543 336.957,149.063 335.990 C 148.951 335.764,148.906 335.810,148.963 336.090 C 149.127 336.903,159.136 337.032,159.446 336.225 C 159.572 335.896,159.583 335.395,159.469 335.113 C 159.356 334.831,159.249 335.005,159.232 335.500 M133.462 335.783 C 133.263 336.300,132.280 336.400,127.389 336.400 C 123.079 336.400,121.627 336.279,121.838 335.938 C 122.016 335.650,121.948 335.585,121.655 335.766 C 120.460 336.504,122.094 336.800,127.375 336.800 C 132.841 336.800,134.886 336.353,133.906 335.373 C 133.792 335.259,133.592 335.443,133.462 335.783 M195.728 335.800 C 195.840 336.882,219.354 337.080,219.433 336.000 C 219.458 335.655,219.406 335.613,219.309 335.900 C 219.007 336.800,196.119 336.605,195.852 335.700 C 195.692 335.156,195.664 335.178,195.728 335.800 M226.088 336.613 C 226.686 337.243,227.247 337.677,227.335 337.579 C 227.423 337.480,226.933 336.965,226.247 336.434 L 225.000 335.469 226.088 336.613 M102.500 336.699 C 105.745 336.766,111.055 336.766,114.300 336.699 C 117.545 336.632,114.890 336.577,108.400 336.577 C 101.910 336.577,99.255 336.632,102.500 336.699 M231.600 337.434 C 230.290 337.970,230.277 337.992,231.400 337.775 C 232.060 337.648,232.771 337.376,232.980 337.172 C 233.459 336.703,233.321 336.729,231.600 337.434 M176.700 337.489 C 177.415 337.578,178.585 337.578,179.300 337.489 C 180.015 337.401,179.430 337.328,178.000 337.328 C 176.570 337.328,175.985 337.401,176.700 337.489 " stroke="none" fill="#9eac94" fill-rule="evenodd"></path><path id="path3" d="M76.925 202.699 C 80.624 202.766,86.564 202.765,90.125 202.699 C 93.686 202.633,90.660 202.579,83.400 202.579 C 76.140 202.579,73.226 202.633,76.925 202.699 M103.000 202.662 C 106.835 202.955,111.111 202.976,110.940 202.700 C 110.837 202.535,108.648 202.431,106.076 202.470 C 103.504 202.508,102.120 202.595,103.000 202.662 M123.300 202.696 C 124.565 202.775,126.635 202.775,127.900 202.696 C 129.165 202.616,128.130 202.551,125.600 202.551 C 123.070 202.551,122.035 202.616,123.300 202.696 M143.524 202.699 C 146.673 202.767,151.713 202.767,154.724 202.699 C 157.736 202.631,155.160 202.576,149.000 202.576 C 142.840 202.576,140.376 202.632,143.524 202.699 M149.300 211.897 C 151.005 211.972,153.795 211.972,155.500 211.897 C 157.205 211.822,155.810 211.761,152.400 211.761 C 148.990 211.761,147.595 211.822,149.300 211.897 M146.117 225.497 C 147.611 225.574,149.951 225.574,151.317 225.496 C 152.682 225.418,151.460 225.355,148.600 225.355 C 145.740 225.356,144.622 225.420,146.117 225.497 M166.100 259.876 C 166.485 259.976,167.115 259.976,167.500 259.876 C 167.885 259.775,167.570 259.693,166.800 259.693 C 166.030 259.693,165.715 259.775,166.100 259.876 M93.952 288.114 C 94.126 288.286,96.322 288.375,98.834 288.312 L 103.400 288.196 98.518 287.998 C 95.834 287.889,93.779 287.941,93.952 288.114 M67.916 288.297 C 69.299 288.375,71.459 288.374,72.716 288.295 C 73.972 288.216,72.840 288.152,70.200 288.153 C 67.560 288.153,66.532 288.218,67.916 288.297 M110.882 288.296 C 112.358 288.373,114.878 288.373,116.482 288.297 C 118.087 288.221,116.880 288.158,113.800 288.158 C 110.720 288.157,109.407 288.219,110.882 288.296 M137.900 288.296 C 139.275 288.374,141.525 288.374,142.900 288.296 C 144.275 288.218,143.150 288.154,140.400 288.154 C 137.650 288.154,136.525 288.218,137.900 288.296 M152.316 288.297 C 153.699 288.375,155.859 288.374,157.116 288.295 C 158.372 288.216,157.240 288.152,154.600 288.153 C 151.960 288.153,150.932 288.218,152.316 288.297 M172.300 288.296 C 173.675 288.374,175.925 288.374,177.300 288.296 C 178.675 288.218,177.550 288.154,174.800 288.154 C 172.050 288.154,170.925 288.218,172.300 288.296 M186.716 288.297 C 188.099 288.375,190.259 288.374,191.516 288.295 C 192.772 288.216,191.640 288.152,189.000 288.153 C 186.360 288.153,185.332 288.218,186.716 288.297 M206.300 288.296 C 207.675 288.374,209.925 288.374,211.300 288.296 C 212.675 288.218,211.550 288.154,208.800 288.154 C 206.050 288.154,204.925 288.218,206.300 288.296 M224.300 288.299 C 227.435 288.367,232.565 288.367,235.700 288.299 C 238.835 288.232,236.270 288.176,230.000 288.176 C 223.730 288.176,221.165 288.232,224.300 288.299 M255.700 288.296 C 256.965 288.375,259.035 288.375,260.300 288.296 C 261.565 288.216,260.530 288.151,258.000 288.151 C 255.470 288.151,254.435 288.216,255.700 288.296 M214.200 321.600 L 209.000 321.837 214.076 321.918 C 217.121 321.967,219.252 321.840,219.400 321.600 C 219.536 321.380,219.592 321.237,219.524 321.282 C 219.456 321.327,217.060 321.470,214.200 321.600 M78.700 325.482 C 79.195 325.578,80.005 325.578,80.500 325.482 C 80.995 325.387,80.590 325.309,79.600 325.309 C 78.610 325.309,78.205 325.387,78.700 325.482 " stroke="none" fill="#a4b09c" fill-rule="evenodd"></path><path id="path4" d="M350.320 49.680 C 351.020 50.380,351.020 349.620,350.320 350.320 C 349.620 351.020,50.380 351.020,49.680 350.320 C 49.359 349.999,49.200 349.985,49.200 350.277 C 49.200 350.518,49.485 350.824,49.833 350.957 C 51.497 351.596,349.930 351.213,350.571 350.571 C 351.213 349.930,351.596 51.497,350.957 49.833 C 350.824 49.485,350.518 49.200,350.277 49.200 C 349.985 49.200,349.999 49.359,350.320 49.680 M120.200 204.800 C 120.048 205.491,120.007 206.141,120.109 206.242 C 120.211 206.344,120.409 205.853,120.550 205.150 C 120.883 203.483,120.560 203.160,120.200 204.800 M129.850 206.050 C 129.517 207.717,129.840 208.040,130.200 206.400 C 130.352 205.709,130.393 205.059,130.291 204.958 C 130.189 204.856,129.991 205.347,129.850 206.050 M100.200 206.400 C 100.048 207.091,100.007 207.741,100.109 207.842 C 100.211 207.944,100.409 207.453,100.550 206.750 C 100.883 205.083,100.560 204.760,100.200 206.400 M109.850 207.650 C 109.517 209.317,109.840 209.640,110.200 208.000 C 110.352 207.309,110.393 206.659,110.291 206.558 C 110.189 206.456,109.991 206.947,109.850 207.650 M159.429 207.429 C 159.281 208.015,159.238 208.572,159.332 208.666 C 159.427 208.760,159.624 208.358,159.771 207.771 C 159.919 207.185,159.962 206.628,159.868 206.534 C 159.773 206.440,159.576 206.842,159.429 207.429 M68.650 208.850 C 68.317 210.517,68.640 210.840,69.000 209.200 C 69.152 208.509,69.193 207.859,69.091 207.758 C 68.989 207.656,68.791 208.147,68.650 208.850 M109.056 211.684 C 108.921 212.188,108.827 212.960,108.846 213.400 C 108.865 213.840,109.045 213.498,109.246 212.640 C 109.636 210.978,109.470 210.140,109.056 211.684 M135.450 212.450 C 135.117 214.117,135.440 214.440,135.800 212.800 C 135.952 212.109,135.993 211.459,135.891 211.358 C 135.789 211.256,135.591 211.747,135.450 212.450 M72.386 211.891 C 74.743 211.979,76.303 212.215,76.517 212.516 C 76.762 212.861,76.814 212.827,76.698 212.400 C 76.568 211.920,75.741 211.795,72.568 211.775 L 68.600 211.750 72.386 211.891 M86.243 212.233 C 86.109 212.581,86.021 213.256,86.047 213.733 C 86.082 214.361,86.165 214.269,86.350 213.400 L 86.605 212.200 90.603 211.977 L 94.600 211.755 90.543 211.677 C 87.165 211.613,86.445 211.706,86.243 212.233 M118.138 215.200 C 117.907 216.066,117.858 216.688,118.028 216.583 C 118.382 216.364,118.958 214.025,118.717 213.784 C 118.630 213.697,118.369 214.334,118.138 215.200 M98.250 216.450 C 97.917 218.117,98.240 218.440,98.600 216.800 C 98.752 216.109,98.793 215.459,98.691 215.358 C 98.589 215.256,98.391 215.747,98.250 216.450 M154.600 219.600 C 154.448 220.291,154.407 220.941,154.509 221.042 C 154.611 221.144,154.809 220.653,154.950 219.950 C 155.283 218.283,154.960 217.960,154.600 219.600 M97.456 220.484 C 97.321 220.988,97.227 221.760,97.246 222.200 C 97.265 222.640,97.445 222.298,97.646 221.440 C 98.036 219.778,97.870 218.940,97.456 220.484 M127.029 220.629 C 126.881 221.215,126.838 221.772,126.932 221.866 C 127.027 221.960,127.224 221.558,127.371 220.971 C 127.519 220.385,127.562 219.828,127.468 219.734 C 127.373 219.640,127.176 220.042,127.029 220.629 M84.249 222.215 C 84.112 222.573,84.015 223.166,84.034 223.533 C 84.053 223.900,84.227 223.669,84.421 223.020 C 84.798 221.758,84.665 221.133,84.249 222.215 M153.829 223.429 C 153.681 224.015,153.638 224.572,153.732 224.666 C 153.827 224.760,154.024 224.358,154.171 223.771 C 154.319 223.185,154.362 222.628,154.268 222.534 C 154.173 222.440,153.976 222.842,153.829 223.429 M96.449 225.800 C 96.416 226.240,96.296 227.050,96.183 227.600 L 95.977 228.600 96.406 227.619 C 96.642 227.079,96.761 226.269,96.672 225.819 C 96.513 225.021,96.507 225.021,96.449 225.800 M111.177 225.899 C 113.645 225.976,115.609 226.228,115.977 226.515 C 116.525 226.942,116.534 226.916,116.051 226.300 C 115.581 225.701,114.888 225.612,111.251 225.684 L 107.000 225.769 111.177 225.899 M106.154 226.577 C 106.032 226.894,106.003 227.479,106.089 227.877 C 106.187 228.328,106.324 228.112,106.454 227.300 C 106.671 225.938,106.530 225.596,106.154 226.577 M142.183 228.572 C 141.787 231.211,141.759 231.200,148.642 231.200 L 154.836 231.200 154.627 232.700 C 154.460 233.892,154.489 233.995,154.769 233.200 C 155.637 230.730,155.813 230.800,148.748 230.800 L 142.297 230.800 142.562 228.800 C 142.708 227.700,142.742 226.800,142.638 226.800 C 142.534 226.800,142.329 227.597,142.183 228.572 M115.450 229.250 C 115.117 230.917,115.440 231.240,115.800 229.600 C 115.952 228.909,115.993 228.259,115.891 228.158 C 115.789 228.056,115.591 228.547,115.450 229.250 M95.450 230.850 C 95.117 232.517,95.440 232.840,95.800 231.200 C 95.952 230.509,95.993 229.859,95.891 229.758 C 95.789 229.656,95.591 230.147,95.450 230.850 M105.249 231.400 C 105.216 231.840,105.096 232.650,104.983 233.200 L 104.777 234.200 105.206 233.219 C 105.442 232.679,105.561 231.869,105.472 231.419 C 105.313 230.621,105.307 230.621,105.249 231.400 M82.200 232.800 C 82.048 233.491,82.007 234.141,82.109 234.242 C 82.211 234.344,82.409 233.853,82.550 233.150 C 82.883 231.483,82.560 231.160,82.200 232.800 M124.200 235.200 C 124.048 235.891,124.007 236.541,124.109 236.642 C 124.211 236.744,124.409 236.253,124.550 235.550 C 124.883 233.883,124.560 233.560,124.200 235.200 M153.800 236.400 C 153.648 237.091,153.607 237.741,153.709 237.842 C 153.811 237.944,154.009 237.453,154.150 236.750 C 154.483 235.083,154.160 234.760,153.800 236.400 M104.200 236.800 C 104.048 237.491,104.007 238.141,104.109 238.242 C 104.211 238.344,104.409 237.853,104.550 237.150 C 104.883 235.483,104.560 235.160,104.200 236.800 M71.654 236.667 C 71.625 237.144,71.496 237.864,71.370 238.267 C 71.152 238.961,71.164 238.962,71.596 238.288 C 71.847 237.897,71.975 237.177,71.881 236.688 C 71.709 235.801,71.709 235.801,71.654 236.667 M81.449 236.615 C 81.312 236.973,81.218 237.656,81.241 238.133 C 81.267 238.681,81.403 238.486,81.610 237.603 C 81.960 236.116,81.865 235.533,81.449 236.615 M72.800 250.627 C 74.144 250.927,77.111 250.980,76.938 250.700 C 76.836 250.535,75.728 250.421,74.476 250.446 C 73.224 250.472,72.470 250.553,72.800 250.627 M104.575 251.700 L 103.400 253.000 104.600 251.921 C 105.589 251.032,106.257 250.818,108.400 250.699 L 111.000 250.554 108.375 250.477 C 105.878 250.404,105.692 250.464,104.575 251.700 M156.550 251.387 C 156.426 251.710,156.417 252.205,156.531 252.487 C 156.644 252.769,156.751 252.599,156.768 252.108 C 156.800 251.222,156.842 251.216,164.700 251.100 L 172.600 250.982 164.687 250.891 C 158.044 250.815,156.739 250.894,156.550 251.387 M190.938 251.417 C 190.808 251.757,190.813 252.147,190.951 252.284 C 191.088 252.421,191.200 252.223,191.200 251.844 C 191.200 251.222,191.684 251.166,196.163 251.277 C 198.892 251.345,201.042 251.265,200.939 251.100 C 200.541 250.459,191.192 250.755,190.938 251.417 M208.661 251.100 C 208.559 251.265,211.194 251.346,214.518 251.279 L 220.562 251.158 219.781 252.079 L 219.000 253.000 219.891 252.247 C 220.380 251.832,220.685 251.337,220.567 251.147 C 220.305 250.723,208.922 250.679,208.661 251.100 M225.338 251.417 C 225.208 251.757,225.213 252.147,225.351 252.284 C 225.488 252.421,225.600 252.236,225.600 251.873 C 225.600 251.277,226.721 251.201,237.100 251.100 L 248.600 250.987 237.087 250.894 C 227.023 250.812,225.545 250.878,225.338 251.417 M251.754 251.377 C 251.632 251.694,251.617 252.279,251.720 252.677 C 251.841 253.146,251.924 253.009,251.954 252.290 L 252.000 251.179 265.362 251.290 C 272.711 251.350,278.641 251.265,278.538 251.100 C 278.152 250.476,251.995 250.746,251.754 251.377 M206.800 253.600 C 206.103 254.480,205.623 255.200,205.733 255.200 C 205.843 255.200,206.503 254.480,207.200 253.600 C 207.897 252.720,208.377 252.000,208.267 252.000 C 208.157 252.000,207.497 252.720,206.800 253.600 M71.649 253.400 C 71.616 253.840,71.496 254.650,71.383 255.200 L 71.177 256.200 71.606 255.219 C 71.842 254.679,71.961 253.869,71.872 253.419 C 71.713 252.621,71.707 252.621,71.649 253.400 M101.821 254.729 L 100.643 256.200 102.121 254.822 C 103.649 253.397,103.810 253.180,103.300 253.229 C 103.135 253.245,102.470 253.920,101.821 254.729 M137.256 254.000 C 137.256 254.330,137.411 254.960,137.600 255.400 C 137.817 255.904,137.944 255.978,137.944 255.600 C 137.944 255.270,137.789 254.640,137.600 254.200 C 137.383 253.696,137.256 253.622,137.256 254.000 M109.850 255.250 C 109.517 256.917,109.840 257.240,110.200 255.600 C 110.352 254.909,110.393 254.259,110.291 254.158 C 110.189 254.056,109.991 254.547,109.850 255.250 M277.450 255.650 C 277.309 256.353,277.269 257.002,277.359 257.092 C 277.450 257.183,277.648 256.691,277.800 256.000 C 277.952 255.309,277.993 254.659,277.891 254.558 C 277.789 254.456,277.591 254.947,277.450 255.650 M127.753 255.700 C 126.376 258.036,126.286 258.235,126.987 257.400 C 127.800 256.432,128.500 255.200,128.238 255.200 C 128.133 255.200,127.915 255.425,127.753 255.700 M155.429 256.629 C 155.281 257.215,155.238 257.772,155.332 257.866 C 155.427 257.960,155.624 257.558,155.771 256.971 C 155.919 256.385,155.962 255.828,155.868 255.734 C 155.773 255.640,155.576 256.042,155.429 256.629 M247.000 257.600 C 246.848 258.291,246.807 258.941,246.909 259.042 C 247.011 259.144,247.209 258.653,247.350 257.950 C 247.491 257.247,247.531 256.598,247.441 256.508 C 247.350 256.417,247.152 256.909,247.000 257.600 M180.244 257.800 C 180.573 259.271,180.802 259.590,180.794 258.567 C 180.791 258.145,180.605 257.530,180.382 257.200 C 180.085 256.762,180.048 256.924,180.244 257.800 M199.400 258.000 C 199.248 258.691,199.207 259.341,199.309 259.442 C 199.411 259.544,199.609 259.053,199.750 258.350 C 200.083 256.683,199.760 256.360,199.400 258.000 M224.049 257.400 C 224.016 257.840,223.896 258.650,223.783 259.200 L 223.577 260.200 224.006 259.219 C 224.242 258.679,224.361 257.869,224.272 257.419 C 224.113 256.621,224.107 256.621,224.049 257.400 M70.650 258.450 C 70.317 260.117,70.640 260.440,71.000 258.800 C 71.152 258.109,71.193 257.459,71.091 257.358 C 70.989 257.256,70.791 257.747,70.650 258.450 M98.573 258.500 C 95.612 261.753,95.065 262.400,95.276 262.400 C 95.401 262.400,96.530 261.230,97.785 259.800 C 100.110 257.152,100.727 256.134,98.573 258.500 M165.200 259.606 C 164.778 259.882,165.015 259.923,166.000 259.742 C 167.725 259.425,168.051 259.198,166.767 259.206 C 166.235 259.209,165.530 259.389,165.200 259.606 M201.600 260.400 C 201.130 261.060,200.836 261.600,200.946 261.600 C 201.056 261.600,201.530 261.060,202.000 260.400 C 202.470 259.740,202.764 259.200,202.654 259.200 C 202.544 259.200,202.070 259.740,201.600 260.400 M233.861 259.900 C 233.758 260.065,235.682 260.153,238.137 260.095 C 246.228 259.905,247.096 259.752,240.524 259.676 C 236.962 259.634,233.963 259.735,233.861 259.900 M170.255 261.000 C 171.180 262.579,171.200 262.603,171.200 262.111 C 171.200 261.879,170.829 261.264,170.376 260.744 L 169.553 259.800 170.255 261.000 M268.154 260.577 C 268.032 260.894,268.003 261.479,268.089 261.877 C 268.187 262.328,268.324 262.112,268.454 261.300 C 268.671 259.938,268.530 259.596,268.154 260.577 M212.551 261.300 C 211.370 262.648,210.680 263.600,210.884 263.600 C 210.984 263.600,211.645 262.880,212.352 262.000 C 213.725 260.292,213.864 259.801,212.551 261.300 M164.200 262.400 C 164.048 263.091,164.007 263.741,164.109 263.842 C 164.211 263.944,164.409 263.453,164.550 262.750 C 164.883 261.083,164.560 260.760,164.200 262.400 M198.649 261.815 C 198.512 262.173,198.418 262.856,198.441 263.333 C 198.467 263.881,198.603 263.686,198.810 262.803 C 199.160 261.316,199.065 260.733,198.649 261.815 M69.856 262.484 C 69.721 262.988,69.627 263.760,69.646 264.200 C 69.665 264.640,69.845 264.298,70.046 263.440 C 70.436 261.778,70.270 260.940,69.856 262.484 M223.029 262.629 C 222.881 263.215,222.838 263.772,222.932 263.866 C 223.027 263.960,223.224 263.558,223.371 262.971 C 223.519 262.385,223.562 261.828,223.468 261.734 C 223.373 261.640,223.176 262.042,223.029 262.629 M180.446 264.067 C 180.421 264.434,180.296 265.064,180.170 265.467 C 179.952 266.162,179.963 266.163,180.397 265.487 C 180.648 265.096,180.773 264.466,180.673 264.087 C 180.511 263.468,180.488 263.466,180.446 264.067 M92.575 265.300 L 91.400 266.600 92.700 265.425 C 93.415 264.779,94.000 264.194,94.000 264.125 C 94.000 263.816,93.670 264.088,92.575 265.300 M208.800 266.000 C 208.103 266.880,207.623 267.600,207.733 267.600 C 207.843 267.600,208.503 266.880,209.200 266.000 C 209.897 265.120,210.377 264.400,210.267 264.400 C 210.157 264.400,209.497 265.120,208.800 266.000 M169.679 265.700 C 168.993 266.386,168.140 266.656,166.090 266.837 L 163.400 267.074 165.894 267.137 C 167.959 267.189,172.736 264.920,170.789 264.812 C 170.673 264.805,170.173 265.205,169.679 265.700 M233.061 265.300 C 233.163 265.465,235.384 265.600,237.996 265.600 C 242.602 265.600,242.750 265.627,242.918 266.500 C 243.069 267.287,243.098 267.265,243.146 266.322 L 243.200 265.244 238.037 265.122 C 235.198 265.055,232.958 265.135,233.061 265.300 M222.256 266.484 C 222.121 266.988,222.027 267.760,222.046 268.200 C 222.065 268.640,222.245 268.298,222.446 267.440 C 222.836 265.778,222.670 264.940,222.256 266.484 M267.029 266.629 C 266.881 267.215,266.838 267.772,266.932 267.866 C 267.027 267.960,267.224 267.558,267.371 266.971 C 267.519 266.385,267.562 265.828,267.468 265.734 C 267.373 265.640,267.176 266.042,267.029 266.629 M89.578 268.700 L 88.200 270.200 89.700 268.822 C 91.096 267.538,91.384 267.200,91.078 267.200 C 91.012 267.200,90.337 267.875,89.578 268.700 M68.650 268.850 C 68.317 270.517,68.640 270.840,69.000 269.200 C 69.152 268.509,69.193 267.859,69.091 267.758 C 68.989 267.656,68.791 268.147,68.650 268.850 M130.900 268.432 C 131.285 268.656,131.614 269.326,131.632 269.920 C 131.649 270.514,131.757 270.767,131.871 270.483 C 132.239 269.565,131.619 267.999,130.892 268.012 C 130.241 268.024,130.241 268.048,130.900 268.432 M176.921 270.247 C 175.777 271.434,175.163 272.234,175.555 272.024 C 176.274 271.639,179.200 268.569,179.200 268.199 C 179.200 267.890,179.129 267.953,176.921 270.247 M242.222 269.422 C 242.072 270.225,242.028 270.962,242.126 271.060 C 242.224 271.157,242.427 270.581,242.578 269.778 C 242.728 268.975,242.772 268.238,242.674 268.140 C 242.576 268.043,242.373 268.619,242.222 269.422 M107.029 269.829 C 106.881 270.415,106.838 270.972,106.932 271.066 C 107.027 271.160,107.224 270.758,107.371 270.171 C 107.519 269.585,107.562 269.028,107.468 268.934 C 107.373 268.840,107.176 269.242,107.029 269.829 M87.424 271.013 C 86.814 271.474,86.579 271.493,86.330 271.100 C 86.097 270.733,86.011 270.727,86.006 271.076 C 85.995 271.947,86.705 272.005,87.658 271.211 C 88.752 270.300,88.570 270.146,87.424 271.013 M141.206 271.033 C 141.209 271.455,141.395 272.070,141.618 272.400 C 141.915 272.838,141.952 272.676,141.756 271.800 C 141.427 270.329,141.198 270.010,141.206 271.033 M67.822 273.022 C 67.672 273.825,67.628 274.562,67.726 274.660 C 67.824 274.757,68.027 274.181,68.178 273.378 C 68.328 272.575,68.372 271.838,68.274 271.740 C 68.176 271.643,67.973 272.219,67.822 273.022 M221.050 272.850 C 220.909 273.553,220.869 274.202,220.959 274.292 C 221.050 274.383,221.248 273.891,221.400 273.200 C 221.552 272.509,221.593 271.859,221.491 271.758 C 221.389 271.656,221.191 272.147,221.050 272.850 M196.432 273.500 C 196.452 273.945,196.539 274.012,196.670 273.683 C 196.840 273.261,196.999 273.261,197.539 273.683 C 198.130 274.145,198.142 274.125,197.651 273.500 C 197.349 273.115,196.944 272.800,196.751 272.800 C 196.558 272.800,196.414 273.115,196.432 273.500 M236.232 273.182 C 232.505 273.339,231.036 273.542,230.962 273.910 C 230.906 274.190,230.952 274.236,231.063 274.010 C 231.185 273.764,233.215 273.598,236.133 273.594 C 238.810 273.591,241.270 273.413,241.600 273.200 C 241.930 272.987,242.020 272.846,241.800 272.888 C 241.580 272.929,239.075 273.062,236.232 273.182 M95.325 274.700 C 94.906 275.085,94.809 275.232,95.112 275.026 C 95.483 274.773,95.779 274.837,96.024 275.226 C 96.305 275.669,96.389 275.595,96.394 274.900 C 96.401 273.817,96.308 273.799,95.325 274.700 M142.056 274.400 C 142.056 274.730,142.211 275.360,142.400 275.800 C 142.617 276.304,142.744 276.378,142.744 276.000 C 142.744 275.670,142.589 275.040,142.400 274.600 C 142.183 274.096,142.056 274.022,142.056 274.400 M255.450 275.250 C 255.309 275.953,255.269 276.602,255.359 276.692 C 255.450 276.783,255.648 276.291,255.800 275.600 C 255.952 274.909,255.993 274.259,255.891 274.158 C 255.789 274.056,255.591 274.547,255.450 275.250 M77.467 274.667 C 77.320 274.813,77.211 275.308,77.225 275.767 C 77.249 276.551,77.272 276.546,77.622 275.674 C 77.845 275.117,78.179 274.863,78.458 275.036 C 78.748 275.215,78.816 275.149,78.638 274.862 C 78.318 274.344,77.865 274.268,77.467 274.667 M132.800 275.733 C 132.800 276.508,126.640 276.750,126.263 275.990 C 126.151 275.764,126.106 275.810,126.162 276.090 C 126.329 276.921,132.740 277.022,133.056 276.199 C 133.189 275.851,133.187 275.453,133.049 275.316 C 132.912 275.179,132.800 275.367,132.800 275.733 M78.828 275.800 C 78.828 276.020,79.086 276.650,79.400 277.200 C 79.714 277.750,79.972 278.020,79.972 277.800 C 79.972 277.580,79.714 276.950,79.400 276.400 C 79.086 275.850,78.828 275.580,78.828 275.800 M186.054 276.267 C 186.025 276.744,185.896 277.464,185.770 277.867 C 185.552 278.561,185.564 278.562,185.996 277.888 C 186.247 277.497,186.375 276.777,186.281 276.288 C 186.109 275.401,186.109 275.401,186.054 276.267 M92.778 277.500 L 91.400 279.000 92.900 277.622 C 94.296 276.338,94.584 276.000,94.278 276.000 C 94.212 276.000,93.537 276.675,92.778 277.500 M151.654 276.667 C 151.625 277.144,151.496 277.864,151.370 278.267 C 151.152 278.961,151.164 278.962,151.596 278.288 C 151.847 277.897,151.975 277.177,151.881 276.688 C 151.709 275.801,151.709 275.801,151.654 276.667 M161.449 276.615 C 161.312 276.973,161.218 277.656,161.241 278.133 C 161.267 278.681,161.403 278.486,161.610 277.603 C 161.960 276.116,161.865 275.533,161.449 276.615 M220.200 277.200 C 220.048 277.891,220.007 278.541,220.109 278.642 C 220.211 278.744,220.409 278.253,220.550 277.550 C 220.691 276.847,220.731 276.198,220.641 276.108 C 220.550 276.017,220.352 276.509,220.200 277.200 M114.553 276.900 C 113.176 279.236,113.086 279.435,113.787 278.600 C 114.600 277.632,115.300 276.400,115.038 276.400 C 114.933 276.400,114.715 276.625,114.553 276.900 M95.450 278.450 C 95.117 280.117,95.440 280.440,95.800 278.800 C 95.952 278.109,95.993 277.459,95.891 277.358 C 95.789 277.256,95.591 277.747,95.450 278.450 M142.868 277.600 C 142.888 278.639,143.518 280.346,143.532 279.400 C 143.538 278.960,143.389 278.240,143.200 277.800 C 142.989 277.310,142.861 277.232,142.868 277.600 M230.134 278.000 L 230.200 279.000 236.383 279.111 C 240.715 279.189,242.659 279.368,242.877 279.711 C 243.093 280.051,243.190 279.987,243.194 279.500 C 243.199 278.862,242.632 278.800,236.828 278.800 C 230.544 278.800,230.453 278.788,230.262 277.900 C 230.092 277.107,230.077 277.119,230.134 278.000 M76.600 278.800 C 76.448 279.491,76.407 280.141,76.509 280.242 C 76.611 280.344,76.809 279.853,76.950 279.150 C 77.283 277.483,76.960 277.160,76.600 278.800 M89.775 280.900 L 88.600 282.200 89.900 281.025 C 91.112 279.930,91.384 279.600,91.075 279.600 C 91.006 279.600,90.421 280.185,89.775 280.900 M264.249 280.615 C 264.112 280.973,264.018 281.656,264.041 282.133 C 264.067 282.681,264.203 282.486,264.410 281.603 C 264.760 280.116,264.665 279.533,264.249 280.615 M150.650 281.650 C 150.317 283.317,150.640 283.640,151.000 282.000 C 151.152 281.309,151.193 280.659,151.091 280.558 C 150.989 280.456,150.791 280.947,150.650 281.650 M194.600 282.800 C 194.448 283.491,194.407 284.141,194.509 284.242 C 194.611 284.344,194.809 283.853,194.950 283.150 C 195.283 281.483,194.960 281.160,194.600 282.800 M65.850 283.250 C 65.517 284.917,65.840 285.240,66.200 283.600 C 66.352 282.909,66.393 282.259,66.291 282.158 C 66.189 282.056,65.991 282.547,65.850 283.250 M166.428 282.200 C 166.428 282.420,166.686 283.050,167.000 283.600 C 167.314 284.150,167.572 284.420,167.572 284.200 C 167.572 283.980,167.314 283.350,167.000 282.800 C 166.686 282.250,166.428 281.980,166.428 282.200 M104.200 284.400 C 104.048 285.091,104.007 285.741,104.109 285.842 C 104.211 285.944,104.409 285.453,104.550 284.750 C 104.883 283.083,104.560 282.760,104.200 284.400 M121.467 283.890 C 121.361 284.061,124.167 284.146,127.702 284.080 C 132.628 283.989,134.214 284.082,134.495 284.480 C 134.778 284.882,134.824 284.864,134.698 284.400 C 134.519 283.744,121.861 283.256,121.467 283.890 M253.649 284.600 C 253.616 285.040,253.496 285.850,253.383 286.400 L 253.177 287.400 253.606 286.419 C 253.842 285.879,253.961 285.069,253.872 284.619 C 253.713 283.821,253.707 283.821,253.649 284.600 M149.856 285.684 C 149.721 286.188,149.627 286.960,149.646 287.400 C 149.665 287.840,149.845 287.498,150.046 286.640 C 150.436 284.978,150.270 284.140,149.856 285.684 M184.093 286.800 C 184.093 287.570,184.175 287.885,184.276 287.500 C 184.376 287.115,184.376 286.485,184.276 286.100 C 184.175 285.715,184.093 286.030,184.093 286.800 M193.829 286.629 C 193.681 287.215,193.638 287.772,193.732 287.866 C 193.827 287.960,194.024 287.558,194.171 286.971 C 194.319 286.385,194.362 285.828,194.268 285.734 C 194.173 285.640,193.976 286.042,193.829 286.629 M180.600 298.354 C 179.940 298.496,181.200 298.613,183.400 298.613 C 185.600 298.613,186.860 298.496,186.200 298.354 C 185.540 298.211,184.280 298.095,183.400 298.095 C 182.520 298.095,181.260 298.211,180.600 298.354 M146.707 298.690 C 147.426 298.779,148.506 298.777,149.107 298.686 C 149.708 298.595,149.120 298.522,147.800 298.524 C 146.480 298.526,145.988 298.601,146.707 298.690 M72.480 299.280 C 72.216 299.544,72.000 299.938,72.000 300.156 C 72.000 300.375,72.225 300.251,72.500 299.882 C 72.926 299.311,73.978 299.194,79.600 299.095 L 86.200 298.979 79.580 298.889 C 74.859 298.826,72.822 298.938,72.480 299.280 M106.716 299.097 C 108.099 299.175,110.259 299.174,111.516 299.095 C 112.772 299.016,111.640 298.952,109.000 298.953 C 106.360 298.953,105.332 299.018,106.716 299.097 M203.286 299.274 C 203.019 299.541,202.811 300.039,202.825 300.380 C 202.841 300.760,202.991 300.652,203.212 300.100 L 203.574 299.200 214.758 299.200 C 224.413 299.200,225.967 299.283,226.130 299.808 C 226.262 300.233,226.299 300.203,226.254 299.708 C 226.172 298.805,204.171 298.389,203.286 299.274 M87.233 299.343 C 87.325 299.421,88.030 299.601,88.800 299.742 C 89.785 299.923,90.022 299.882,89.600 299.606 C 89.058 299.250,86.837 299.003,87.233 299.343 M103.050 302.050 C 102.717 303.717,103.040 304.040,103.400 302.400 C 103.552 301.709,103.593 301.059,103.491 300.958 C 103.389 300.856,103.191 301.347,103.050 302.050 M150.806 301.433 C 150.809 301.855,150.995 302.470,151.218 302.800 C 151.515 303.238,151.552 303.076,151.356 302.200 C 151.027 300.729,150.798 300.410,150.806 301.433 M71.649 301.800 C 71.616 302.240,71.496 303.050,71.383 303.600 L 71.177 304.600 71.606 303.619 C 71.842 303.079,71.961 302.269,71.872 301.819 C 71.713 301.021,71.707 301.021,71.649 301.800 M112.622 303.822 C 112.472 304.625,112.428 305.362,112.526 305.460 C 112.624 305.557,112.827 304.981,112.978 304.178 C 113.128 303.375,113.172 302.638,113.074 302.540 C 112.976 302.443,112.773 303.019,112.622 303.822 M195.951 304.080 C 196.515 304.721,196.801 305.419,196.655 305.800 C 196.512 306.172,196.575 306.339,196.805 306.197 C 197.491 305.773,197.237 304.972,196.100 303.970 L 195.000 303.000 195.951 304.080 M151.606 304.633 C 151.609 305.055,151.795 305.670,152.018 306.000 C 152.315 306.438,152.352 306.276,152.156 305.400 C 151.827 303.929,151.598 303.610,151.606 304.633 M70.650 306.850 C 70.317 308.517,70.640 308.840,71.000 307.200 C 71.152 306.509,71.193 305.859,71.091 305.758 C 70.989 305.656,70.791 306.147,70.650 306.850 M111.800 308.000 C 111.648 308.691,111.607 309.341,111.709 309.442 C 111.811 309.544,112.009 309.053,112.150 308.350 C 112.483 306.683,112.160 306.360,111.800 308.000 M194.575 308.100 L 193.400 309.400 194.700 308.225 C 195.912 307.130,196.184 306.800,195.875 306.800 C 195.806 306.800,195.221 307.385,194.575 308.100 M96.537 310.200 C 96.539 311.960,96.609 312.630,96.693 311.689 C 96.778 310.749,96.777 309.309,96.691 308.489 C 96.605 307.670,96.536 308.440,96.537 310.200 M152.468 308.000 C 152.488 309.039,153.118 310.746,153.132 309.800 C 153.138 309.360,152.989 308.640,152.800 308.200 C 152.589 307.710,152.461 307.632,152.468 308.000 M185.131 308.108 C 185.863 308.342,187.361 309.342,188.460 310.330 L 190.458 312.126 191.729 310.772 L 193.000 309.418 191.713 310.572 L 190.425 311.725 188.610 310.052 C 186.861 308.440,185.270 307.555,184.274 307.641 C 184.013 307.663,184.399 307.873,185.131 308.108 M211.280 308.480 C 211.016 308.744,210.821 309.419,210.847 309.980 C 210.891 310.926,210.913 310.913,211.151 309.800 L 211.406 308.600 217.803 308.385 L 224.200 308.169 217.980 308.085 C 213.576 308.025,211.620 308.140,211.280 308.480 M69.856 310.884 C 69.721 311.388,69.627 312.160,69.646 312.600 C 69.665 313.040,69.845 312.698,70.046 311.840 C 70.436 310.178,70.270 309.340,69.856 310.884 M111.049 311.815 C 110.912 312.173,110.818 312.856,110.841 313.333 C 110.867 313.881,111.003 313.686,111.210 312.803 C 111.560 311.316,111.465 310.733,111.049 311.815 M174.323 311.900 C 173.618 312.721,173.090 313.600,173.301 313.600 C 173.383 313.600,173.849 313.060,174.337 312.400 C 175.301 311.096,175.292 310.772,174.323 311.900 M79.429 312.629 C 79.281 313.215,79.238 313.772,79.332 313.866 C 79.427 313.960,79.624 313.558,79.771 312.971 C 79.919 312.385,79.962 311.828,79.868 311.734 C 79.773 311.640,79.576 312.042,79.429 312.629 M210.400 312.600 C 210.400 313.150,210.555 313.600,210.745 313.600 C 210.934 313.600,211.003 313.150,210.898 312.600 C 210.793 312.050,210.638 311.600,210.553 311.600 C 210.469 311.600,210.400 312.050,210.400 312.600 M86.900 313.300 C 86.470 314.475,86.480 314.526,87.012 313.824 C 87.521 313.152,87.821 312.000,87.488 312.000 C 87.426 312.000,87.161 312.585,86.900 313.300 M153.606 313.033 C 153.609 313.455,153.795 314.070,154.018 314.400 C 154.315 314.838,154.352 314.676,154.156 313.800 C 153.827 312.329,153.598 312.010,153.606 313.033 M200.250 313.650 C 199.917 315.317,200.240 315.640,200.600 314.000 C 200.752 313.309,200.793 312.659,200.691 312.558 C 200.589 312.456,200.391 312.947,200.250 313.650 M162.249 315.015 C 162.112 315.373,162.018 316.056,162.041 316.533 C 162.067 317.081,162.203 316.886,162.410 316.003 C 162.760 314.516,162.665 313.933,162.249 315.015 M134.553 315.300 C 133.176 317.636,133.086 317.835,133.787 317.000 C 134.600 316.032,135.300 314.800,135.038 314.800 C 134.933 314.800,134.715 315.025,134.553 315.300 M220.449 315.400 C 220.416 315.840,220.296 316.650,220.183 317.200 L 219.977 318.200 220.406 317.219 C 220.642 316.679,220.761 315.869,220.672 315.419 C 220.513 314.621,220.507 314.621,220.449 315.400 M68.650 317.250 C 68.317 318.917,68.640 319.240,69.000 317.600 C 69.152 316.909,69.193 316.259,69.091 316.158 C 68.989 316.056,68.791 316.547,68.650 317.250 M80.307 316.290 C 81.026 316.379,82.106 316.377,82.707 316.286 C 83.308 316.195,82.720 316.122,81.400 316.124 C 80.080 316.126,79.588 316.201,80.307 316.290 M154.456 316.400 C 154.456 316.730,154.611 317.360,154.800 317.800 C 155.017 318.304,155.144 318.378,155.144 318.000 C 155.144 317.670,154.989 317.040,154.800 316.600 C 154.583 316.096,154.456 316.022,154.456 316.400 M171.852 316.900 C 171.535 318.083,171.583 321.616,171.928 322.485 C 172.078 322.862,172.200 321.557,172.200 319.585 C 172.200 315.635,172.197 315.613,171.852 316.900 M109.800 318.400 C 109.648 319.091,109.607 319.741,109.709 319.842 C 109.811 319.944,110.009 319.453,110.150 318.750 C 110.483 317.083,110.160 316.760,109.800 318.400 M161.728 320.800 C 161.728 322.230,161.801 322.815,161.889 322.100 C 161.978 321.385,161.978 320.215,161.889 319.500 C 161.801 318.785,161.728 319.370,161.728 320.800 M92.581 320.500 L 91.000 322.200 92.700 320.619 C 94.281 319.148,94.584 318.800,94.281 318.800 C 94.216 318.800,93.451 319.565,92.581 320.500 M145.844 319.800 C 146.173 321.271,146.402 321.590,146.394 320.567 C 146.391 320.145,146.205 319.530,145.982 319.200 C 145.685 318.762,145.648 318.924,145.844 319.800 M219.508 320.310 C 219.283 321.170,219.107 321.200,214.261 321.200 C 211.503 321.200,209.163 321.335,209.061 321.500 C 208.958 321.665,211.184 321.745,214.006 321.678 C 219.195 321.555,220.338 321.215,219.908 319.924 C 219.816 319.647,219.636 319.821,219.508 320.310 M67.822 321.422 C 67.672 322.225,67.628 322.962,67.726 323.060 C 67.824 323.157,68.027 322.581,68.178 321.778 C 68.328 320.975,68.372 320.238,68.274 320.140 C 68.176 320.043,67.973 320.619,67.822 321.422 M140.800 322.400 C 140.351 323.280,140.074 324.000,140.184 324.000 C 140.294 324.000,140.751 323.280,141.200 322.400 C 141.649 321.520,141.926 320.800,141.816 320.800 C 141.706 320.800,141.249 321.520,140.800 322.400 M155.606 321.433 C 155.609 321.855,155.795 322.470,156.018 322.800 C 156.315 323.238,156.352 323.076,156.156 322.200 C 155.827 320.729,155.598 320.410,155.606 321.433 M198.454 323.067 C 198.425 323.544,198.296 324.264,198.170 324.667 C 197.952 325.361,197.964 325.362,198.396 324.688 C 198.647 324.297,198.775 323.577,198.681 323.088 C 198.509 322.201,198.509 322.201,198.454 323.067 M172.752 324.245 C 173.270 325.295,175.857 327.601,176.514 327.599 C 176.781 327.598,176.444 327.258,175.764 326.843 C 175.084 326.429,174.035 325.485,173.432 324.745 C 172.829 324.005,172.523 323.780,172.752 324.245 M162.006 325.033 C 162.009 325.455,162.195 326.070,162.418 326.400 C 162.715 326.838,162.752 326.676,162.556 325.800 C 162.227 324.329,161.998 324.010,162.006 325.033 M81.700 325.076 C 82.085 325.176,82.715 325.176,83.100 325.076 C 83.485 324.975,83.170 324.893,82.400 324.893 C 81.630 324.893,81.315 324.975,81.700 325.076 M76.600 327.200 C 76.448 327.891,76.407 328.541,76.509 328.642 C 76.611 328.744,76.809 328.253,76.950 327.550 C 77.283 325.883,76.960 325.560,76.600 327.200 M227.400 327.835 L 226.200 328.866 227.600 327.963 C 229.396 326.804,229.401 326.800,228.967 326.802 C 228.765 326.803,228.060 327.268,227.400 327.835 M220.454 328.000 C 220.419 328.550,220.296 329.450,220.183 330.000 L 219.977 331.000 220.407 330.015 C 220.643 329.474,220.765 328.574,220.678 328.015 L 220.520 327.000 220.454 328.000 M178.500 327.887 C 179.105 327.978,180.095 327.978,180.700 327.887 C 181.305 327.795,180.810 327.720,179.600 327.720 C 178.390 327.720,177.895 327.795,178.500 327.887 M157.444 329.000 C 157.773 330.471,158.002 330.790,157.994 329.767 C 157.991 329.345,157.805 328.730,157.582 328.400 C 157.285 327.962,157.248 328.124,157.444 329.000 M190.400 329.600 C 190.849 330.480,191.306 331.200,191.416 331.200 C 191.526 331.200,191.249 330.480,190.800 329.600 C 190.351 328.720,189.894 328.000,189.784 328.000 C 189.674 328.000,189.951 328.720,190.400 329.600 M164.222 330.200 C 165.114 331.765,166.313 333.077,167.800 334.117 C 168.473 334.587,168.112 334.087,166.978 332.977 C 165.865 331.890,164.636 330.550,164.247 330.000 C 163.558 329.027,163.558 329.032,164.222 330.200 M65.850 331.650 C 65.517 333.317,65.840 333.640,66.200 332.000 C 66.352 331.309,66.393 330.659,66.291 330.558 C 66.189 330.456,65.991 330.947,65.850 331.650 M120.449 331.800 C 120.416 332.240,120.296 333.050,120.183 333.600 L 119.977 334.600 120.406 333.619 C 120.642 333.079,120.761 332.269,120.672 331.819 C 120.513 331.021,120.507 331.021,120.449 331.800 M224.856 332.894 C 224.810 334.463,224.989 334.980,225.900 335.913 C 226.505 336.532,226.644 336.615,226.209 336.097 C 225.764 335.567,225.307 334.245,225.165 333.077 L 224.913 331.000 224.856 332.894 M135.737 331.906 C 135.483 332.068,138.210 332.200,141.799 332.200 C 145.387 332.200,148.239 332.065,148.138 331.900 C 147.899 331.513,136.348 331.518,135.737 331.906 M219.429 333.429 C 219.281 334.015,219.238 334.572,219.332 334.666 C 219.427 334.760,219.624 334.358,219.771 333.771 C 219.919 333.185,219.962 332.628,219.868 332.534 C 219.773 332.440,219.576 332.842,219.429 333.429 M148.468 333.200 C 148.488 334.239,149.118 335.946,149.132 335.000 C 149.138 334.560,148.989 333.840,148.800 333.400 C 148.589 332.910,148.461 332.832,148.468 333.200 M122.446 334.804 C 121.952 335.682,121.695 336.394,121.874 336.387 C 122.206 336.374,123.673 333.540,123.459 333.326 C 123.395 333.262,122.939 333.927,122.446 334.804 M170.000 335.431 C 170.000 335.701,172.078 336.456,172.276 336.257 C 172.367 336.167,171.892 335.901,171.220 335.667 C 170.549 335.433,170.000 335.327,170.000 335.431 M185.000 335.814 C 184.000 336.296,183.966 336.351,184.800 336.148 C 185.933 335.871,187.207 335.221,186.600 335.230 C 186.380 335.233,185.660 335.496,185.000 335.814 M174.000 336.800 C 174.550 336.976,175.360 337.120,175.800 337.120 C 176.433 337.120,176.392 337.054,175.600 336.800 C 175.050 336.624,174.240 336.480,173.800 336.480 C 173.167 336.480,173.208 336.546,174.000 336.800 M180.200 336.800 C 179.122 337.074,179.102 337.106,180.000 337.113 C 180.550 337.117,181.450 336.976,182.000 336.800 C 183.344 336.369,181.892 336.369,180.200 336.800 " stroke="none" fill="#acb49c" fill-rule="evenodd"></path></g></svg>