<?xml version="1.0" standalone="no"?>
<!DOCTYPE svg PUBLIC "-//W3C//DTD SVG 20010904//EN"
 "http://www.w3.org/TR/2001/REC-SVG-20010904/DTD/svg10.dtd">
<svg version="1.0" xmlns="http://www.w3.org/2000/svg"
 width="300.000000pt" height="300.000000pt" viewBox="0 0 300.000000 300.000000"
 preserveAspectRatio="xMidYMid meet">
<metadata>
Created by potrace 1.10, written by Peter Selinger 2001-2011
</metadata>
<g transform="translate(0.000000,300.000000) scale(0.050000,-0.050000)"
fill="#356532" stroke="none">
<path d="M749 5235 c-5 -14 -7 -1028 -4 -2255 l5 -2230 2250 0 2250 0 0 2250
0 2250 -2246 5 c-1786 4 -2247 0 -2255 -20z m703 -2307 c-7 -17 -12 -49 -12
-70 0 -30 -14 -38 -67 -38 l-68 0 -33 -175 c-50 -257 -44 -245 -133 -245 -44
0 -79 4 -79 8 0 4 18 95 40 202 22 107 40 198 40 202 0 4 -27 8 -60 8 -62 0
-69 15 -47 95 11 43 21 45 221 45 184 0 209 -4 198 -32z m206 -43 c-28 -120
-25 -128 47 -121 60 6 66 13 82 101 17 94 18 95 95 95 94 0 92 15 28 -300 -27
-135 -50 -249 -50 -253 0 -4 -36 -7 -80 -7 -87 0 -89 5 -62 125 l18 75 -67 0
c-58 0 -67 -7 -79 -65 -27 -133 -28 -135 -113 -135 -66 0 -78 6 -70 35 5 19
30 145 55 280 l46 245 84 0 84 0 -18 -75z m744 10 c-13 -62 -18 -65 -118 -71
-139 -8 -159 -84 -22 -84 67 0 80 -6 70 -32 -7 -17 -12 -44 -12 -58 0 -18 -30
-30 -85 -34 -134 -10 -133 -76 1 -76 l99 0 -13 -65 -14 -65 -181 -6 -181 -5
48 255 c27 141 52 267 57 281 5 18 61 25 186 25 l178 0 -13 -65z m-289 -895
c84 -331 84 -320 -13 -320 -58 0 -80 8 -80 30 0 23 -24 30 -98 30 -68 0 -101
-9 -109 -30 -11 -28 -193 -47 -193 -20 0 16 301 496 336 536 65 73 91 35 157
-226z m-881 85 l71 -155 51 60 c332 386 360 352 216 -265 -10 -44 -171 -72
-170 -30 1 8 9 51 19 95 l18 80 -88 -97 -89 -97 -43 97 -43 97 -19 -95 c-21
-105 -175 -155 -175 -57 0 32 58 341 90 477 23 97 87 54 162 -110z m1439 106
c76 -76 59 -197 -37 -274 l-41 -32 54 -91 c68 -116 69 -114 -34 -114 -82 0
-89 4 -123 80 -20 44 -43 80 -50 80 -8 0 -21 -36 -28 -80 -12 -78 -15 -80 -92
-80 -44 0 -80 7 -80 15 0 8 24 134 53 280 l53 265 138 0 c120 0 144 -6 187
-49z m337 -31 c-7 -44 -9 -80 -3 -80 5 0 35 36 65 80 52 75 62 80 154 80 l99
0 -110 -141 -110 -142 59 -130 c32 -72 58 -134 58 -139 0 -4 -40 -8 -88 -8
-87 0 -89 2 -123 90 -19 50 -41 90 -49 90 -9 0 -22 -40 -29 -90 -13 -89 -14
-90 -92 -90 -53 0 -79 9 -79 27 0 23 58 331 91 488 8 38 23 45 90 45 l79 0
-12 -80z m724 48 c-7 -17 -12 -48 -12 -69 0 -30 -18 -38 -105 -43 -135 -8
-171 -76 -40 -76 123 0 103 -115 -22 -124 -132 -10 -130 -76 3 -76 l99 0 -13
-65 -14 -65 -181 -6 -181 -5 48 255 c27 141 52 267 57 281 5 18 62 25 191 25
158 0 181 -4 170 -32z m448 7 c-1 -78 -27 -113 -87 -119 l-63 -6 -38 -205 -37
-205 -78 0 c-89 0 -88 -6 -47 207 40 211 40 213 -28 213 -59 0 -62 11 -31 115
6 18 65 25 208 25 148 0 201 -7 201 -25z m-1334 -702 c110 -46 130 -86 71
-145 -50 -50 -51 -50 -113 -14 -58 33 -68 33 -118 6 -173 -97 -111 -323 68
-249 64 26 126 -19 126 -91 0 -67 -240 -102 -341 -50 -295 153 -2 672 307 543z
m-1480 -16 c182 -97 76 -377 -142 -377 -52 0 -60 -9 -76 -85 -20 -95 -168
-149 -168 -61 0 34 66 402 90 501 12 52 212 66 296 22z m322 -122 c-16 -80
-33 -174 -40 -210 l-12 -65 92 0 c96 0 117 -33 80 -128 -13 -34 -336 -49 -354
-17 -5 8 14 139 42 290 l52 275 84 0 83 0 -27 -145z m643 -135 c35 -148 60
-277 55 -285 -20 -35 -150 -15 -160 25 -9 32 -27 40 -98 40 -66 0 -92 -9 -108
-40 -20 -38 -200 -63 -200 -28 0 7 79 137 175 291 234 375 246 374 336 -3z
m1062 235 c-7 -25 -13 -56 -13 -70 0 -17 -33 -25 -100 -25 -55 0 -100 -4 -100
-8 0 -5 -5 -23 -12 -40 -10 -26 3 -32 70 -32 87 0 93 -8 63 -87 -15 -39 -35
-52 -93 -57 -120 -10 -110 -56 12 -56 l103 0 -14 -65 c-7 -36 -18 -72 -23 -80
-16 -27 -346 -18 -346 10 0 14 23 142 50 284 28 143 50 262 50 265 0 3 82 6
182 6 180 0 182 -1 171 -45z m137 -387 c58 -59 -36 -188 -114 -157 -72 27 -65
139 11 169 61 25 66 24 103 -12z"/>
<path d="M1920 1900 c-18 -34 -15 -40 19 -40 28 0 41 13 41 40 0 22 -9 40 -19
40 -11 0 -29 -18 -41 -40z"/>
<path d="M2480 2083 c0 -11 -6 -35 -13 -53 -10 -26 -3 -32 35 -27 57 8 67 83
13 93 -19 4 -35 -2 -35 -13z"/>
<path d="M1213 1367 c-20 -20 -16 -107 5 -107 45 0 82 27 82 60 0 20 -14 41
-32 48 -39 15 -38 15 -55 -1z"/>
<path d="M2142 1203 c-28 -51 -20 -70 23 -60 18 5 23 23 15 57 l-12 50 -26
-47z"/>
</g>
</svg>
